<svg width="30" height="22" viewBox="0 0 30 22" fill="none" xmlns="http://www.w3.org/2000/svg">
<path d="M26.0747 0.695703H26.0745L3.92676 0.695703L3.92659 0.695703C3.11013 0.696632 2.32739 1.02138 1.75007 1.5987C1.17275 2.17602 0.848 2.95876 0.84707 3.77522V3.77539L0.84707 18.2246L0.84707 18.2248C0.848 19.0412 1.17275 19.824 1.75007 20.4013C2.32739 20.9786 3.11013 21.3034 3.92659 21.3043H3.92676H26.0745H26.0747C26.8911 21.3034 27.6739 20.9786 28.2512 20.4013C28.8285 19.824 29.1532 19.0412 29.1542 18.2248V18.2246V3.77539V3.77522C29.1533 2.95877 28.8286 2.17601 28.2512 1.59869C27.6739 1.02136 26.8912 0.696616 26.0747 0.695703ZM13.7653 12.7667L13.7642 12.7659L2.31895 3.96238L2.31895 3.77556C2.31895 3.77552 2.31895 3.77549 2.31895 3.77546C2.31945 3.34918 2.48902 2.9405 2.79044 2.63908C3.09187 2.33765 3.50055 2.16809 3.92682 2.16758C3.92686 2.16758 3.92689 2.16758 3.92693 2.16758H26.0743C26.0744 2.16758 26.0744 2.16758 26.0744 2.16758C26.5007 2.16809 26.9094 2.33765 27.2108 2.63908C27.5123 2.94053 27.6818 3.34924 27.6823 3.77556V3.96552L16.466 12.7689C16.4659 12.769 16.4659 12.769 16.4658 12.7691C16.08 13.0702 15.6046 13.2335 15.1152 13.2331C14.6258 13.2327 14.1506 13.0686 13.7653 12.7667ZM17.3723 13.9284L17.3725 13.9282L19.9249 11.9254L27.3801 19.162C27.2433 19.3526 27.0661 19.5113 26.8607 19.6266C26.6205 19.7614 26.3498 19.8322 26.0745 19.8324H3.92684C3.65235 19.8322 3.38247 19.7618 3.14289 19.6279C2.93871 19.5137 2.76233 19.3566 2.62561 19.168L10.2937 11.9538L12.8624 13.9295C12.8626 13.9296 12.8627 13.9298 12.8628 13.9299C13.5068 14.4327 14.3005 14.7058 15.1176 14.7056C15.9348 14.7054 16.7285 14.4318 17.3723 13.9284ZM21.0933 11.008L27.6824 5.83657V17.4042L21.0933 11.008ZM2.31895 5.8193L9.11194 11.0443L2.31895 17.4354V5.8193Z" fill="#582D7F" stroke="#582D7F" stroke-width="0.3"/>
</svg>
