<svg width="28" height="40" viewBox="0 0 28 40" fill="none" xmlns="http://www.w3.org/2000/svg">
<path d="M13.6969 0C10.406 0 7.7314 2.63991 7.6511 5.91264C7.64959 5.91719 7.65262 5.91993 7.6511 5.92448C7.64959 5.97145 7.6363 6.01364 7.6363 6.06061C7.6363 6.08788 7.64807 6.11027 7.6511 6.13755C7.65413 6.1633 7.64656 6.18873 7.6511 6.21449L10.492 19.7118C8.88898 19.789 7.60671 21.1046 7.60671 22.7243C7.60671 23.8379 8.21746 24.8042 9.11594 25.3314C8.95382 26.4269 8.01812 27.2727 6.87873 27.2727H3.84843C1.76055 27.2727 0.0605469 28.9712 0.0605469 31.0606V35.6061C0.0605469 36.0242 0.399941 36.3636 0.818123 36.3636H1.5757V38.6364C1.5757 39.0545 1.91509 39.3939 2.33327 39.3939H25.0605C25.4787 39.3939 25.8181 39.0545 25.8181 38.6364V36.3636H26.5757C26.9939 36.3636 27.3333 36.0242 27.3333 35.6061V31.0606C27.3333 28.9712 25.6333 27.2727 23.5454 27.2727H20.5151C19.3666 27.2727 18.4235 26.4124 18.272 25.3048C19.1417 24.7715 19.7309 23.8197 19.7309 22.7273C19.7309 21.1242 18.4761 19.8222 16.8989 19.7177L19.7398 6.21449C19.7458 6.18722 19.7382 6.16331 19.7398 6.13755C19.7443 6.11027 19.7575 6.08788 19.7575 6.06061C19.7575 6.01364 19.7442 5.97145 19.7427 5.92448C19.7427 5.91993 19.7442 5.91719 19.7427 5.91264C19.6624 2.63991 16.9878 0 13.6969 0ZM13.6969 1.51515C16.1848 1.51515 18.2077 3.52552 18.2364 6.00734L15.3541 19.697H12.0397L9.15737 6.00734C9.18616 3.52552 11.209 1.51515 13.6969 1.51515ZM10.64 21.2121H11.4242H15.9696H16.7006C17.5354 21.2121 18.2157 21.8909 18.2157 22.7273C18.2157 23.5636 17.5354 24.2424 16.7006 24.2424H10.64C9.80513 24.2424 9.12482 23.5636 9.12482 22.7273C9.12482 21.8909 9.80513 21.2121 10.64 21.2121ZM16.8042 25.7457C16.9178 26.3124 17.1676 26.8273 17.5055 27.2727H9.89128C10.2261 26.8288 10.4745 26.3168 10.5897 25.7517C10.6063 25.7517 10.6233 25.7576 10.64 25.7576H16.7006C16.7354 25.7576 16.7693 25.7473 16.8042 25.7457ZM3.84843 28.7879H6.87873H20.5151H23.5454C24.7984 28.7879 25.8181 29.8076 25.8181 31.0606V34.8485H25.0605H2.33327H1.5757V31.0606C1.5757 29.8076 2.5954 28.7879 3.84843 28.7879ZM3.09085 36.3636H24.303V37.8788H3.09085V36.3636Z" fill="#582D7F"/>
</svg>
