<svg width="40" height="40" viewBox="0 0 40 40" fill="none" xmlns="http://www.w3.org/2000/svg">
<g clip-path="url(#clip0_230_296)">
<path d="M37.0287 29.5966C36.6342 29.5966 36.3144 29.9164 36.3144 30.3109V32.9252C36.3144 34.1086 35.355 35.068 34.1716 35.068H5.00014C3.81667 35.068 2.85728 34.1086 2.85728 32.9252V10.068C2.85728 8.88454 3.81667 7.92515 5.00014 7.92515H12.0144C12.4089 7.92515 12.7287 7.60536 12.7287 7.21087C12.7287 6.81638 12.4089 6.49658 12.0144 6.49658H5.00014C3.02769 6.49658 1.42871 8.09556 1.42871 10.068V32.9252C1.42871 34.8976 3.02769 36.4966 5.00014 36.4966H34.1716C36.1408 36.4888 37.7352 34.8943 37.743 32.9252V30.3109C37.743 29.9164 37.4232 29.5966 37.0287 29.5966Z" fill="#582D7F"/>
<path d="M37.8574 17.6539H37.7431V10.0682C37.7353 8.09903 36.1409 6.50462 34.1717 6.49679C33.7772 6.49679 33.4574 6.81659 33.4574 7.21108C33.4574 7.60556 33.7772 7.92536 34.1717 7.92536C35.3552 7.92536 36.3146 8.88475 36.3146 10.0682V10.4682H35.5146L31.2289 6.1825L28.1146 3.06822C27.9804 2.93299 27.7979 2.85693 27.6074 2.85693C27.417 2.85693 27.2344 2.93299 27.1003 3.06822L23.3289 6.83965L19.5431 3.06822C19.2605 2.79424 18.8114 2.79424 18.5289 3.06822L11.1289 10.4682H8.57171C8.17722 10.4682 7.85742 10.788 7.85742 11.1825C7.85742 11.577 8.17722 11.8968 8.57171 11.8968H36.3146V17.6111H32.1431C29.3817 17.6111 27.1431 19.8497 27.1431 22.6111V23.1539C27.1431 25.9154 29.3817 28.1539 32.1431 28.1539H37.8574C39.0409 28.1539 40.0003 27.1945 40.0003 26.0111V19.7968C40.0003 18.6133 39.0409 17.6539 37.8574 17.6539ZM27.6146 4.5825L29.686 6.65393C28.4333 7.4956 26.7958 7.4956 25.5431 6.65393L27.6146 4.5825ZM24.5289 7.66822C26.3509 9.059 28.8782 9.059 30.7003 7.66822L33.5574 10.5254H26.9431L24.3289 7.85393L24.5289 7.66822ZM16.2431 10.5254L20.5289 6.23965L21.5289 7.23965L18.2431 10.4682L16.2431 10.5254ZM22.6003 8.19679L25.0003 10.4682H20.2574L22.6003 8.19679ZM19.0431 4.5825L19.5717 5.11108L14.2146 10.4682H13.1574L19.0431 4.5825ZM38.5717 26.0111C38.5717 26.4056 38.2519 26.7254 37.8574 26.7254H32.1431C31.1959 26.7254 30.2875 26.3491 29.6178 25.6793C28.948 25.0095 28.5717 24.1011 28.5717 23.1539V22.6111C28.5717 20.6386 30.1707 19.0396 32.1431 19.0396H37.8574C38.2519 19.0396 38.5717 19.3594 38.5717 19.7539V26.0111Z" fill="#582D7F"/>
<path d="M31.5428 22.8571C32.3318 22.8571 32.9714 22.2176 32.9714 21.4286C32.9714 20.6396 32.3318 20 31.5428 20C30.7539 20 30.1143 20.6396 30.1143 21.4286C30.1143 22.2176 30.7539 22.8571 31.5428 22.8571Z" fill="#582D7F"/>
</g>
<defs>
<clipPath id="clip0_230_296">
<rect width="40" height="40" fill="white"/>
</clipPath>
</defs>
</svg>
