<svg width="40" height="40" viewBox="0 0 40 40" fill="none" xmlns="http://www.w3.org/2000/svg">
<path d="M26.6104 19.3989H21.692C21.6024 19.1475 21.458 18.9191 21.2692 18.7304C21.0805 18.5417 20.8522 18.3973 20.6008 18.3076V10.9854C20.6008 10.826 20.5375 10.6731 20.4248 10.5604C20.3121 10.4477 20.1592 10.3844 19.9998 10.3844C19.8404 10.3844 19.6876 10.4477 19.5749 10.5604C19.4622 10.6731 19.3989 10.826 19.3989 10.9854V18.3076C19.112 18.4085 18.8554 18.5804 18.653 18.8074C18.4507 19.0343 18.3092 19.3089 18.2417 19.6054C18.1743 19.9019 18.1831 20.2106 18.2674 20.5028C18.3517 20.7949 18.5087 21.0609 18.7237 21.2759C18.9387 21.4909 19.2047 21.6479 19.4969 21.7322C19.789 21.8165 20.0978 21.8253 20.3943 21.7579C20.6908 21.6905 20.9653 21.5489 21.1923 21.3466C21.4192 21.1442 21.5912 20.8876 21.692 20.6008H26.6104C26.7698 20.6008 26.9226 20.5375 27.0353 20.4248C27.148 20.3121 27.2114 20.1592 27.2114 19.9998C27.2114 19.8404 27.148 19.6876 27.0353 19.5749C26.9226 19.4622 26.7698 19.3989 26.6104 19.3989ZM19.9998 20.6008C19.881 20.6008 19.7648 20.5655 19.6659 20.4995C19.5671 20.4335 19.4901 20.3396 19.4446 20.2298C19.3991 20.12 19.3872 19.9991 19.4104 19.8826C19.4336 19.766 19.4908 19.6589 19.5749 19.5749C19.6589 19.4908 19.766 19.4336 19.8826 19.4104C19.9992 19.3872 20.12 19.3991 20.2298 19.4446C20.3396 19.4901 20.4335 19.5671 20.4995 19.6659C20.5655 19.7648 20.6008 19.881 20.6008 19.9998C20.6007 20.1592 20.5373 20.312 20.4246 20.4246C20.312 20.5373 20.1592 20.6007 19.9998 20.6008ZM31.0745 8.99074C31.0641 8.97842 31.06 8.96294 31.0484 8.95127C31.0367 8.9396 31.0212 8.93557 31.0089 8.92508C28.086 6.01111 24.1271 4.37481 19.9998 4.37481C15.8725 4.37481 11.9136 6.01111 8.99075 8.92508C8.97843 8.93557 8.96295 8.9396 8.95127 8.95127C8.9396 8.96294 8.93558 8.97841 8.92509 8.99074C6.01112 11.9136 4.37482 15.8725 4.37482 19.9998C4.37482 24.1271 6.01112 28.086 8.92509 31.0089C8.93558 31.0212 8.9396 31.0367 8.95127 31.0483C8.96295 31.06 8.97841 31.064 8.99075 31.0745C11.9136 33.9885 15.8725 35.6248 19.9998 35.6248C24.1271 35.6248 28.086 33.9885 31.0089 31.0745C31.0212 31.064 31.0367 31.06 31.0484 31.0483C31.06 31.0367 31.0641 31.0212 31.0745 31.0089C33.9885 28.086 35.6248 24.1271 35.6248 19.9998C35.6248 15.8725 33.9885 11.9136 31.0745 8.99074ZM30.5983 29.7485L29.3488 28.499C29.2357 28.3881 29.0835 28.3264 28.9251 28.3272C28.7668 28.328 28.6152 28.3913 28.5033 28.5032C28.3913 28.6152 28.3281 28.7668 28.3273 28.9251C28.3265 29.0834 28.3882 29.2356 28.499 29.3487L29.7485 30.5983C27.2463 32.9087 24.0037 34.2536 20.6008 34.3924V32.62C20.6008 32.4606 20.5375 32.3078 20.4248 32.1951C20.3121 32.0824 20.1592 32.019 19.9998 32.019C19.8404 32.019 19.6876 32.0824 19.5749 32.1951C19.4622 32.3078 19.3989 32.4606 19.3989 32.62V34.3924C15.9959 34.2536 12.7534 32.9087 10.2511 30.5983L11.5007 29.3488C11.6115 29.2357 11.6732 29.0834 11.6724 28.9251C11.6716 28.7668 11.6084 28.6152 11.4964 28.5033C11.3845 28.3913 11.2329 28.3281 11.0745 28.3273C10.9162 28.3265 10.764 28.3882 10.6509 28.499L9.40135 29.7485C7.0909 27.2463 5.74599 24.0037 5.60719 20.6008H7.37963C7.53901 20.6008 7.69187 20.5375 7.80457 20.4248C7.91727 20.3121 7.98059 20.1592 7.98059 19.9998C7.98059 19.8404 7.91727 19.6876 7.80457 19.5749C7.69187 19.4622 7.53901 19.3989 7.37963 19.3989H5.60719C5.74599 15.9959 7.0909 12.7533 9.40135 10.2511L10.6509 11.5007C10.764 11.6115 10.9162 11.6732 11.0745 11.6724C11.2328 11.6716 11.3844 11.6083 11.4964 11.4964C11.6083 11.3844 11.6716 11.2328 11.6724 11.0745C11.6732 10.9162 11.6115 10.764 11.5006 10.6509L10.2511 9.40134C12.7534 7.09089 15.9959 5.74598 19.3989 5.60718V7.37962C19.3989 7.539 19.4622 7.69186 19.5749 7.80456C19.6876 7.91727 19.8404 7.98058 19.9998 7.98058C20.1592 7.98058 20.3121 7.91727 20.4248 7.80456C20.5375 7.69186 20.6008 7.539 20.6008 7.37962V5.60718C24.0037 5.74598 27.2463 7.09089 29.7485 9.40134L28.499 10.6509C28.4422 10.7065 28.3971 10.7727 28.3662 10.8459C28.3352 10.919 28.3191 10.9976 28.3187 11.077C28.3183 11.1564 28.3336 11.2351 28.3638 11.3086C28.394 11.382 28.4385 11.4488 28.4947 11.5049C28.5508 11.5611 28.6176 11.6056 28.691 11.6358C28.7645 11.666 28.8432 11.6813 28.9226 11.6809C29.002 11.6805 29.0806 11.6644 29.1537 11.6334C29.2269 11.6025 29.2931 11.5574 29.3487 11.5006L30.5983 10.2511C32.9087 12.7533 34.2537 15.9959 34.3925 19.3989H32.62C32.4606 19.3989 32.3078 19.4622 32.1951 19.5749C32.0824 19.6876 32.0191 19.8404 32.0191 19.9998C32.0191 20.1592 32.0824 20.3121 32.1951 20.4248C32.3078 20.5375 32.4606 20.6008 32.62 20.6008H34.3925C34.2537 24.0037 32.9087 27.2463 30.5983 29.7485ZM19.9998 0.769043C16.1963 0.769043 12.4783 1.89691 9.31578 4.01001C6.15329 6.12312 3.68844 9.12655 2.23291 12.6405C0.777375 16.1545 0.396542 20.0211 1.13857 23.7516C1.88059 27.482 3.71214 30.9085 6.40161 33.598C9.09109 36.2875 12.5177 38.119 16.2481 38.8611C19.9785 39.6031 23.8452 39.2223 27.3591 37.7667C30.8731 36.3112 33.8765 33.8463 35.9896 30.6839C38.1027 27.5214 39.2306 23.8033 39.2306 19.9998C39.2248 14.9013 37.1968 10.0133 33.5916 6.40805C29.9864 2.80284 25.0983 0.774874 19.9998 0.769043ZM19.9998 38.0287C16.4341 38.0287 12.9484 36.9713 9.98353 34.9902C7.0187 33.0092 4.7079 30.1935 3.34334 26.8992C1.97878 23.6048 1.62175 19.9798 2.31739 16.4826C3.01304 12.9853 4.73012 9.77287 7.2515 7.25149C9.77288 4.73011 12.9853 3.01303 16.4826 2.31739C19.9798 1.62174 23.6048 1.97877 26.8992 3.34333C30.1935 4.70789 33.0092 7.01869 34.9903 9.98352C36.9713 12.9484 38.0287 16.434 38.0287 19.9998C38.0233 24.7797 36.1221 29.3623 32.7422 32.7422C29.3623 36.1221 24.7797 38.0233 19.9998 38.0287Z" fill="#582D7F"/>
</svg>
