<svg width="40" height="40" viewBox="0 0 40 40" fill="none" xmlns="http://www.w3.org/2000/svg">
<path d="M19.9999 39.7016C20.0596 39.7016 20.1193 39.7016 20.179 39.6419C29.9104 36.3583 36.4179 27.2837 36.4179 17.015V6.56727C36.4179 6.20906 36.179 5.97026 35.8208 5.97026C26.4477 5.97026 20.7761 0.656826 20.3581 0.41802C20.1193 0.238915 19.8805 0.238915 19.6417 0.41802C19.2238 0.656826 13.4925 5.97026 4.17905 5.97026C3.82084 5.97026 3.58203 6.20906 3.58203 6.56727V17.015C3.58203 27.2837 10.0895 36.3583 19.8208 39.7016C19.8805 39.7016 19.9402 39.7016 19.9999 39.7016ZM4.77606 17.015V7.16429C13.9701 6.92548 19.7014 1.79115 19.9999 1.61205C20.3582 1.79115 25.9701 6.92548 35.2238 7.16429V17.015C35.2238 26.6867 29.1343 35.2837 19.9999 38.5076C10.8656 35.2837 4.77606 26.6867 4.77606 17.015Z" fill="#582D7F"/>
<path d="M20.2387 36.4775C28.2387 33.3134 33.4327 25.6716 33.4327 17.0149V9.43277C33.4327 9.13426 33.1939 8.89546 32.8954 8.83576C28.3581 8.35814 23.9999 6.7462 20.2984 4.11934C20.1193 3.99993 19.8208 3.99993 19.6417 4.11934C15.9402 6.6865 11.582 8.29844 7.04464 8.83576C6.74613 8.89546 6.50732 9.13426 6.50732 9.43277V17.0149C6.50732 25.6716 11.7014 33.3134 19.7611 36.4775C19.8208 36.4775 19.8805 36.5373 19.9999 36.5373C20.1193 36.5373 20.1193 36.5373 20.2387 36.4775ZM7.76106 17.0149V9.91038C12.1193 9.37307 16.3581 7.76113 19.9999 5.31337C23.6417 7.76113 27.8805 9.37307 32.2387 9.91038V16.9552C32.2387 25.0746 27.4626 32.2387 19.9999 35.2835C12.5372 32.2387 7.76106 25.0746 7.76106 17.0149Z" fill="#582D7F"/>
<path d="M27.1045 15.3432C26.8657 15.1044 26.5074 15.1044 26.2686 15.3432L17.4328 24.1193L13.9104 20.5969C13.6716 20.3581 13.3134 20.3581 13.0746 20.5969C12.8358 20.8357 12.8358 21.1939 13.0746 21.4327L17.0149 25.373C17.1343 25.4924 17.2537 25.5521 17.4328 25.5521C17.6119 25.5521 17.7313 25.4924 17.8507 25.373L27.1045 16.1193C27.3433 15.9402 27.3433 15.582 27.1045 15.3432Z" fill="#582D7F"/>
</svg>
