<svg width="40" height="40" viewBox="0 0 40 40" fill="none" xmlns="http://www.w3.org/2000/svg">
<g clip-path="url(#clip0_228_202)">
<path d="M5.625 39.995C5.79076 39.995 5.94973 39.9291 6.06694 39.8119C6.18415 39.6947 6.25 39.5357 6.25 39.37V32.4662C6.25 31.1 6.97875 29.8125 8.15125 29.11L13.0438 26.1737L15.7288 29.53C15.7838 29.5985 15.8526 29.6548 15.9308 29.6951C16.009 29.7353 16.0947 29.7587 16.1825 29.7637L16.2175 29.765C16.3825 29.765 16.5425 29.7 16.66 29.5825L17.8625 28.38V29.1412C17.8625 29.307 17.9283 29.4659 18.0456 29.5832C18.1628 29.7004 18.3217 29.7662 18.4875 29.7662H18.5462L17.5037 39.3037C17.4934 39.386 17.4995 39.4696 17.5217 39.5496C17.544 39.6295 17.5819 39.7042 17.6334 39.7694C17.6848 39.8345 17.7487 39.8887 17.8213 39.9289C17.8939 39.9691 17.9738 39.9944 18.0563 40.0033C18.1388 40.0123 18.2223 40.0047 18.3018 39.9811C18.3814 39.9575 18.4554 39.9182 18.5197 39.8657C18.5839 39.8131 18.637 39.7483 18.6759 39.675C18.7148 39.6017 18.7387 39.5214 18.7463 39.4387L19.8038 29.7662H20.1962L21.2537 39.4387C21.2717 39.6036 21.3543 39.7547 21.4836 39.8587C21.6129 39.9626 21.7782 40.011 21.9431 39.9931C22.1081 39.9752 22.2591 39.8925 22.3631 39.7632C22.4671 39.6339 22.5154 39.4686 22.4975 39.3037L21.455 29.7662H21.5138C21.6795 29.7662 21.8385 29.7004 21.9557 29.5832C22.0729 29.4659 22.1388 29.307 22.1388 29.1412V28.38L23.3413 29.5825C23.3994 29.6405 23.4684 29.6864 23.5443 29.7178C23.6203 29.7491 23.7016 29.7651 23.7838 29.765L23.8188 29.7637C23.9065 29.7587 23.9923 29.7353 24.0705 29.6951C24.1486 29.6548 24.2175 29.5985 24.2725 29.53L26.9575 26.1737L31.8513 29.11C32.429 29.4596 32.9071 29.952 33.2396 30.5397C33.5721 31.1275 33.7479 31.7909 33.75 32.4662V39.37C33.75 39.5357 33.8158 39.6947 33.9331 39.8119C34.0503 39.9291 34.2092 39.995 34.375 39.995C34.5408 39.995 34.6997 39.9291 34.8169 39.8119C34.9342 39.6947 35 39.5357 35 39.37V32.4662C35 30.6625 34.0387 28.9662 32.4925 28.0387L27.21 24.87L25.23 22.67C25.1476 22.5819 25.0409 22.5202 24.9235 22.4926C24.806 22.465 24.683 22.4728 24.57 22.515V20.06C25.4795 19.3618 26.2164 18.464 26.7237 17.4358C27.2311 16.4076 27.4954 15.2765 27.4963 14.13V11.29L28.7025 5.70746C28.7935 5.2139 28.7848 4.70711 28.6768 4.21699C28.5688 3.72686 28.3638 3.26332 28.0737 2.85371C27.7862 2.44233 27.4191 2.09269 26.9943 1.82541C26.5694 1.55813 26.0953 1.37862 25.6 1.29746L18.1525 0.0562132C17.6193 -0.0328652 17.0732 -0.00464111 16.552 0.138919C16.0309 0.28248 15.5473 0.537925 15.135 0.887463C14.4314 1.48475 13.9762 2.32329 13.8587 3.23871C13.1213 3.37621 12.4538 3.76996 11.9725 4.36496C11.6709 4.73851 11.4577 5.17536 11.3486 5.64288C11.2395 6.1104 11.2374 6.59653 11.3425 7.06496L12.4962 11.2775V14.1287C12.4962 16.5425 13.6463 18.6875 15.4225 20.06V22.5137C15.3101 22.4735 15.1885 22.4669 15.0724 22.4946C14.9563 22.5224 14.8508 22.5833 14.7687 22.67L12.79 24.8687L7.5075 28.0387C6.7445 28.4992 6.11297 29.1485 5.67378 29.924C5.23459 30.6995 5.00254 31.575 5 32.4662V39.37C5 39.5357 5.06585 39.6947 5.18306 39.8119C5.30027 39.9291 5.45924 39.995 5.625 39.995ZM20.8875 27.2487V28.515H19.1125V27.2487C19.1125 27.2137 19.0975 27.1825 19.0925 27.1487L20 26.2412L20.9087 27.15C20.9025 27.1825 20.8875 27.2137 20.8875 27.2487ZM25.99 25.3812L23.7313 28.205L21.0675 25.5412L24.6138 23.8525L25.99 25.3812ZM12.9437 5.15121C13.1243 4.92697 13.353 4.74618 13.6128 4.6222C13.8727 4.49822 14.1571 4.43424 14.445 4.43496C14.79 4.43496 15.07 4.07121 15.07 3.72621C15.0693 3.4016 15.1328 3.08006 15.2567 2.78002C15.3805 2.47998 15.5624 2.20734 15.7919 1.97775C16.0214 1.74816 16.2939 1.56613 16.5939 1.44209C16.8939 1.31806 17.2154 1.25447 17.54 1.25496C17.6765 1.25507 17.8128 1.26636 17.9475 1.28871L25.395 2.52996C26.07 2.64246 26.6575 3.01246 27.0513 3.57121C27.445 4.13121 27.595 4.80996 27.4763 5.46246L26.54 9.79371L25.36 8.32746V6.96871C25.36 6.80295 25.2942 6.64398 25.1769 6.52677C25.0597 6.40956 24.9008 6.34371 24.735 6.34371H15.2575C15.0917 6.34371 14.9328 6.40956 14.8156 6.52677C14.6983 6.64398 14.6325 6.80295 14.6325 6.96871V8.32871L13.4037 9.85996L12.5563 6.76871C12.435 6.19621 12.5762 5.60621 12.9437 5.15121ZM13.7463 14.1287V11.4312L15.7463 8.93996C15.8351 8.8289 15.8836 8.69094 15.8837 8.54871V7.59371H24.1112V8.54871C24.1112 8.69098 24.1597 8.829 24.2488 8.93996L26.2475 11.4212V14.1275C26.2475 17.5737 23.4438 20.3775 19.9975 20.3775C16.5513 20.3775 13.7463 17.575 13.7463 14.1287ZM19.9963 21.6287C21.1912 21.6287 22.3175 21.3412 23.32 20.8425V23.0837L20 24.665L16.6725 23.08V20.8412C17.6763 21.34 18.8025 21.6287 19.9963 21.6287ZM15.3862 23.8525L18.9325 25.5412L16.2688 28.205L14.01 25.3812L15.3862 23.8525Z" fill="#582D7F"/>
<path d="M11.8752 39.9951C12.0409 39.9951 12.1999 39.9293 12.3171 39.8121C12.4343 39.6949 12.5002 39.5359 12.5002 39.3701V36.4426C12.5014 35.1536 12.0193 33.911 11.1489 32.9601L10.2027 31.9239C10.1473 31.8632 10.0804 31.8141 10.0061 31.7792C9.93166 31.7444 9.85113 31.7246 9.76906 31.7209C9.687 31.7171 9.60501 31.7296 9.52777 31.7576C9.45053 31.7856 9.37956 31.8285 9.3189 31.8839C9.25825 31.9393 9.2091 32.0061 9.17427 32.0805C9.13943 32.1549 9.11959 32.2354 9.11587 32.3175C9.11216 32.3995 9.12465 32.4815 9.15262 32.5588C9.18059 32.636 9.2235 32.707 9.2789 32.7676L10.2252 33.8039C10.8853 34.524 11.251 35.4657 11.2502 36.4426V39.3701C11.2502 39.5359 11.316 39.6949 11.4332 39.8121C11.5504 39.9293 11.7094 39.9951 11.8752 39.9951ZM29.7977 31.9239L28.8514 32.9614C27.9811 33.9118 27.4989 35.154 27.5002 36.4426V39.3701C27.5002 39.5359 27.566 39.6949 27.6832 39.8121C27.8004 39.9293 27.9594 39.9951 28.1252 39.9951C28.2909 39.9951 28.4499 39.9293 28.5671 39.8121C28.6843 39.6949 28.7502 39.5359 28.7502 39.3701V36.4426C28.7502 35.4639 29.1139 34.5264 29.7739 33.8039L30.7202 32.7676C30.7756 32.7071 30.8185 32.6362 30.8465 32.559C30.8745 32.4818 30.887 32.3999 30.8834 32.3179C30.8797 32.2359 30.8599 32.1554 30.8252 32.0811C30.7904 32.0067 30.7414 31.9399 30.6808 31.8845C30.6202 31.8291 30.5493 31.7862 30.4722 31.7582C30.395 31.7302 30.3131 31.7176 30.2311 31.7213C30.1491 31.725 30.0686 31.7447 29.9942 31.7795C29.9198 31.8142 29.8531 31.8633 29.7977 31.9239Z" fill="#582D7F"/>
</g>
<defs>
<clipPath id="clip0_228_202">
<rect width="40" height="40" fill="white"/>
</clipPath>
</defs>
</svg>
