<svg width="38" height="38" viewBox="0 0 38 38" fill="none" xmlns="http://www.w3.org/2000/svg">
<path d="M6.8279 15.3759C6.79243 15.4242 6.76288 15.4766 6.7399 15.5319C6.7399 15.5319 6.7399 15.5519 6.7399 15.5639C6.72252 15.6196 6.71309 15.6775 6.7119 15.7359C6.71309 15.7956 6.72251 15.8548 6.7399 15.9119C6.7399 15.9119 6.7399 15.9319 6.7399 15.9399C6.76197 15.9957 6.79157 16.0482 6.8279 16.0959L18.5279 30.7759C18.5562 30.8153 18.5915 30.8491 18.6319 30.8759H18.6559C18.694 30.9039 18.7357 30.9268 18.7799 30.9439H18.8239C18.9356 30.9811 19.0563 30.9811 19.1679 30.9439H19.2119C19.2561 30.9268 19.2978 30.9039 19.3359 30.8759H19.3599C19.4003 30.8491 19.4356 30.8153 19.4639 30.7759L31.1639 16.0959C31.2473 15.9891 31.2925 15.8574 31.2925 15.7219C31.2925 15.5864 31.2473 15.4547 31.1639 15.3479L26.6959 9.7479C26.6386 9.67805 26.5666 9.62173 26.485 9.583C26.4034 9.54428 26.3142 9.52409 26.2239 9.5239H11.7719C11.6816 9.52409 11.5924 9.54428 11.5108 9.583C11.4292 9.62173 11.3572 9.67805 11.2999 9.7479L6.8319 15.3479C6.8319 15.3479 6.8279 15.3719 6.8279 15.3759ZM14.2959 16.3399L17.5799 27.6719L8.5479 16.3399H14.2959ZM29.4519 16.3399L20.4199 27.6719L23.7039 16.3399H29.4519ZM18.9999 28.2639L15.5439 16.3399H22.4559L18.9999 28.2639ZM29.4519 15.1399H23.7039L22.4279 10.7399H25.9399L29.4519 15.1399ZM21.1799 10.7399L22.4559 15.1399H15.5439L16.8199 10.7399H21.1799ZM12.0599 10.7399H15.5719L14.2959 15.1399H8.5479L12.0599 10.7399ZM8.0039 8.8519C8.05943 8.90781 8.1255 8.95215 8.19828 8.98236C8.27105 9.01257 8.3491 9.02805 8.4279 9.0279C8.58672 9.02647 8.73876 8.96336 8.8519 8.8519C8.96329 8.73889 9.02574 8.58658 9.02574 8.4279C9.02574 8.26922 8.96329 8.11691 8.8519 8.0039L6.6959 5.8479C6.58216 5.74192 6.43172 5.68422 6.27628 5.68696C6.12084 5.6897 5.97254 5.75267 5.86261 5.86261C5.75267 5.97254 5.6897 6.12084 5.68696 6.27628C5.68422 6.43172 5.74192 6.58216 5.8479 6.6959L8.0039 8.8519ZM4.0479 18.3999H0.999902C0.840772 18.3999 0.68816 18.4631 0.575638 18.5756C0.463116 18.6882 0.399902 18.8408 0.399902 18.9999C0.399902 19.159 0.463116 19.3116 0.575638 19.4242C0.68816 19.5367 0.840772 19.5999 0.999902 19.5999H4.0479C4.20703 19.5999 4.35964 19.5367 4.47217 19.4242C4.58469 19.3116 4.6479 19.159 4.6479 18.9999C4.6479 18.8408 4.58469 18.6882 4.47217 18.5756C4.35964 18.4631 4.20703 18.3999 4.0479 18.3999ZM8.0039 29.1479L5.8479 31.3039C5.79179 31.3593 5.74723 31.4254 5.71682 31.4981C5.68642 31.5709 5.67076 31.649 5.67076 31.7279C5.67076 31.8068 5.68642 31.8849 5.71682 31.9577C5.74723 32.0304 5.79179 32.0965 5.8479 32.1519C5.9604 32.2643 6.1129 32.3274 6.2719 32.3274C6.4309 32.3274 6.5834 32.2643 6.6959 32.1519L8.8519 29.9959C8.95789 29.8822 9.01558 29.7317 9.01284 29.5763C9.0101 29.4208 8.94713 29.2725 8.8372 29.1626C8.72727 29.0527 8.57896 28.9897 8.42352 28.987C8.26808 28.9842 8.11764 29.0419 8.0039 29.1479ZM18.9999 33.3519C18.8408 33.3519 18.6882 33.4151 18.5756 33.5276C18.4631 33.6402 18.3999 33.7928 18.3999 33.9519V36.9999C18.3999 37.159 18.4631 37.3116 18.5756 37.4242C18.6882 37.5367 18.8408 37.5999 18.9999 37.5999C19.159 37.5999 19.3116 37.5367 19.4242 37.4242C19.5367 37.3116 19.5999 37.159 19.5999 36.9999V33.9519C19.5999 33.7928 19.5367 33.6402 19.4242 33.5276C19.3116 33.4151 19.159 33.3519 18.9999 33.3519ZM29.9959 29.1479C29.8822 29.0419 29.7317 28.9842 29.5763 28.987C29.4208 28.9897 29.2725 29.0527 29.1626 29.1626C29.0527 29.2725 28.9897 29.4208 28.987 29.5763C28.9842 29.7317 29.0419 29.8822 29.1479 29.9959L31.3039 32.1519C31.4164 32.2643 31.5689 32.3274 31.7279 32.3274C31.8869 32.3274 32.0394 32.2643 32.1519 32.1519C32.208 32.0965 32.2526 32.0304 32.283 31.9577C32.3134 31.8849 32.329 31.8068 32.329 31.7279C32.329 31.649 32.3134 31.5709 32.283 31.4981C32.2526 31.4254 32.208 31.3593 32.1519 31.3039L29.9959 29.1479ZM36.9999 18.3999H33.9519C33.7928 18.3999 33.6402 18.4631 33.5276 18.5756C33.4151 18.6882 33.3519 18.8408 33.3519 18.9999C33.3519 19.159 33.4151 19.3116 33.5276 19.4242C33.6402 19.5367 33.7928 19.5999 33.9519 19.5999H36.9999C37.159 19.5999 37.3116 19.5367 37.4242 19.4242C37.5367 19.3116 37.5999 19.159 37.5999 18.9999C37.5999 18.8408 37.5367 18.6882 37.4242 18.5756C37.3116 18.4631 37.159 18.3999 36.9999 18.3999ZM31.3039 5.8479L29.1479 8.0039C29.0365 8.11691 28.9741 8.26922 28.9741 8.4279C28.9741 8.58658 29.0365 8.73889 29.1479 8.8519C29.261 8.96336 29.4131 9.02647 29.5719 9.0279C29.6507 9.02805 29.7287 9.01257 29.8015 8.98236C29.8743 8.95215 29.9404 8.90781 29.9959 8.8519L32.1519 6.6959C32.2579 6.58216 32.3156 6.43172 32.3128 6.27628C32.3101 6.12084 32.2471 5.97254 32.1372 5.86261C32.0273 5.75267 31.879 5.6897 31.7235 5.68696C31.5681 5.68422 31.4176 5.74192 31.3039 5.8479ZM18.9999 4.6479C19.159 4.6479 19.3116 4.58469 19.4242 4.47217C19.5367 4.35964 19.5999 4.20703 19.5999 4.0479V0.999902C19.5999 0.840772 19.5367 0.68816 19.4242 0.575638C19.3116 0.463116 19.159 0.399902 18.9999 0.399902C18.8408 0.399902 18.6882 0.463116 18.5756 0.575638C18.4631 0.68816 18.3999 0.840772 18.3999 0.999902V4.0479C18.3999 4.20703 18.4631 4.35964 18.5756 4.47217C18.6882 4.58469 18.8408 4.6479 18.9999 4.6479Z" fill="#582D7F"/>
</svg>
