<svg width="39" height="31" viewBox="0 0 39 31" fill="none" xmlns="http://www.w3.org/2000/svg">
<path d="M12.7502 28.7473H12.4314C11.9533 28.5879 11.7939 28.1098 11.9533 27.6316L23.7471 0.537891C23.9064 0.0597658 24.3846 -0.0996094 24.8627 0.0597656C25.3408 0.378516 25.5002 0.85664 25.3408 1.17539L13.5471 28.2691C13.3877 28.5879 13.0689 28.7473 12.7502 28.7473Z" fill="#582D7F"/>
<path d="M32.6721 30.3408C32.5127 30.3408 32.3533 30.3408 32.1939 30.1814L25.9783 25.5596H15.1408C14.8221 25.5596 14.3439 25.5596 14.0252 25.4002C13.5471 25.2408 13.3877 24.9221 13.5471 24.4439C13.7064 23.9658 14.0252 23.8064 14.5033 23.9658C14.6627 23.9658 14.9814 24.1252 15.1408 24.1252H26.2971C26.4564 24.1252 26.6158 24.1252 26.7752 24.2846L31.8752 27.9502V24.7627C31.8752 24.2846 32.1939 23.9658 32.6721 23.9658H34.2658C35.5408 23.9658 36.6564 22.8502 36.6564 21.5752V10.4189C36.6564 9.14395 35.5408 8.02832 34.2658 8.02832H21.8346C21.3564 8.02832 21.0377 7.70957 21.0377 7.23145C21.0377 6.75332 21.3564 6.43457 21.8346 6.43457H34.2658C36.4971 6.43457 38.2502 8.1877 38.2502 10.4189V21.5752C38.2502 23.8064 36.4971 25.5596 34.2658 25.5596H33.4689V29.5439C33.4689 29.8627 33.3096 30.1814 32.9908 30.1814C32.8314 30.3408 32.8314 30.3408 32.6721 30.3408Z" fill="#582D7F"/>
<path d="M29.4844 20.7783C29.0062 20.7783 28.6875 20.4596 28.6875 19.9814V13.6064C28.6875 13.1283 28.3688 12.8096 27.8906 12.8096H24.7031C24.225 12.8096 23.9062 13.1283 23.9062 13.6064V19.9814C23.9062 20.4596 23.5875 20.7783 23.1094 20.7783C22.6312 20.7783 22.3125 20.4596 22.3125 19.9814V13.6064C22.3125 12.3314 23.4281 11.2158 24.7031 11.2158H27.8906C29.1656 11.2158 30.2812 12.3314 30.2812 13.6064V19.9814C30.2812 20.4596 29.9625 20.7783 29.4844 20.7783Z" fill="#582D7F"/>
<path d="M28.6875 17.5908H23.9062C23.4281 17.5908 23.1094 17.2721 23.1094 16.7939C23.1094 16.3158 23.4281 15.9971 23.9062 15.9971H28.6875C29.1656 15.9971 29.4844 16.3158 29.4844 16.7939C29.4844 17.2721 29.1656 17.5908 28.6875 17.5908ZM5.57812 27.1533C5.41875 27.1533 5.25938 27.1533 5.25938 26.9939C4.94063 26.9939 4.78125 26.6752 4.78125 26.3564V22.3721H3.98438C1.75313 22.3721 0 20.6189 0 18.3877V7.23145C0 5.0002 1.75313 3.24707 3.98438 3.24707H23.1094C23.5875 3.24707 23.9062 3.7252 23.9062 4.04395C23.9062 4.3627 23.5875 4.84082 23.1094 4.84082H3.98438C2.70937 4.84082 1.59375 5.95645 1.59375 7.23145V18.3877C1.59375 19.6627 2.70937 20.7783 3.98438 20.7783H5.57812C6.05625 20.7783 6.375 21.0971 6.375 21.5752V24.7627L11.475 20.9377C11.6344 20.7783 11.7937 20.7783 11.9531 20.7783H15.1406C15.6187 20.7783 15.9375 21.0971 15.9375 21.5752C15.9375 22.0533 15.6187 22.3721 15.1406 22.3721H12.2719L6.05625 26.9939C5.89688 27.1533 5.7375 27.1533 5.57812 27.1533Z" fill="#582D7F"/>
<path d="M15.1406 9.62207H7.17188C6.69375 9.62207 6.375 9.30332 6.375 8.8252C6.375 8.34707 6.69375 8.02832 7.17188 8.02832H15.1406C15.6187 8.02832 15.9375 8.34707 15.9375 8.8252C15.9375 9.30332 15.6187 9.62207 15.1406 9.62207Z" fill="#582D7F"/>
<path d="M14.9811 19.1844C14.8217 19.1844 14.6623 19.1844 14.6623 19.025C10.8373 17.1125 8.2873 13.1281 8.12793 8.98437C8.12793 8.50625 8.44668 8.1875 8.9248 8.1875C9.40293 8.1875 9.72168 8.50625 9.72168 8.98437C9.88105 12.65 12.1123 15.9969 15.4592 17.75C15.7779 17.9094 15.9373 18.3875 15.7779 18.8656C15.4592 19.025 15.1404 19.1844 14.9811 19.1844Z" fill="#582D7F"/>
<path d="M8.76553 17.9096C8.44678 17.9096 8.28741 17.7502 8.12803 17.5908C7.96866 17.2721 7.96866 16.7939 8.44678 16.4752C10.9968 14.7221 12.5905 12.0127 12.7499 8.8252C12.7499 8.34707 13.0687 8.02832 13.5468 8.02832C14.0249 8.02832 14.3437 8.50645 14.3437 8.8252C14.1843 12.4908 12.2718 15.8377 9.24366 17.7502C9.08428 17.9096 8.92491 17.9096 8.76553 17.9096ZM11.1562 9.62207C10.678 9.62207 10.3593 9.30332 10.3593 8.8252V7.23145C10.3593 6.75332 10.678 6.43457 11.1562 6.43457C11.6343 6.43457 11.953 6.75332 11.953 7.23145V8.8252C11.953 9.30332 11.6343 9.62207 11.1562 9.62207Z" fill="#582D7F"/>
</svg>
