<svg width="40" height="40" viewBox="0 0 40 40" fill="none" xmlns="http://www.w3.org/2000/svg">
<path d="M25.4906 14.367C25.4363 14.3125 25.3717 14.2694 25.3007 14.2399C25.2296 14.2104 25.1535 14.1953 25.0766 14.1953C24.9996 14.1953 24.9235 14.2104 24.8524 14.2399C24.7814 14.2694 24.7168 14.3125 24.6625 14.367L14.3672 24.6623C14.3096 24.7159 14.2634 24.7806 14.2314 24.8525C14.1994 24.9244 14.1822 25.0019 14.1808 25.0806C14.1794 25.1593 14.1939 25.2374 14.2233 25.3104C14.2528 25.3834 14.2967 25.4496 14.3523 25.5053C14.408 25.5609 14.4742 25.6048 14.5472 25.6343C14.6201 25.6637 14.6983 25.6782 14.777 25.6768C14.8556 25.6754 14.9332 25.6582 15.0051 25.6262C15.077 25.5941 15.1417 25.548 15.1953 25.4904L25.4906 15.1951C25.545 15.1407 25.5882 15.0762 25.6177 15.0051C25.6471 14.9341 25.6623 14.8579 25.6623 14.781C25.6623 14.7041 25.6471 14.628 25.6177 14.5569C25.5882 14.4859 25.545 14.4213 25.4906 14.367ZM16.5688 19.4123C17.2266 19.4119 17.864 19.1834 18.3724 18.7657C18.8807 18.348 19.2284 17.767 19.3564 17.1217C19.4844 16.4764 19.3847 15.8066 19.0742 15.2266C18.7638 14.6466 18.2618 14.1921 17.6538 13.9407C17.0459 13.6892 16.3696 13.6564 15.7401 13.8476C15.1106 14.0389 14.567 14.4426 14.2017 14.9898C13.8365 15.537 13.6723 16.1939 13.7371 16.8486C13.8018 17.5033 14.0916 18.1153 14.557 18.5802C14.821 18.8446 15.1347 19.0541 15.4799 19.1969C15.8251 19.3397 16.1952 19.4129 16.5688 19.4123ZM15.3852 15.3849C15.6192 15.1509 15.9174 14.9915 16.242 14.9269C16.5666 14.8623 16.9031 14.8954 17.2089 15.0221C17.5147 15.1487 17.7761 15.3632 17.9599 15.6384C18.1438 15.9136 18.242 16.2372 18.242 16.5681C18.242 16.8991 18.1438 17.2227 17.9599 17.4979C17.7761 17.7731 17.5147 17.9876 17.2089 18.1142C16.9031 18.2409 16.5666 18.274 16.242 18.2094C15.9174 18.1448 15.6192 17.9854 15.3852 17.7513C15.2294 17.5962 15.1058 17.4118 15.0215 17.2087C14.9372 17.0057 14.8938 16.788 14.8938 16.5681C14.8938 16.3483 14.9372 16.1306 15.0215 15.9276C15.1058 15.7245 15.2294 15.5401 15.3852 15.3849ZM38.432 17.4943C37.9156 17.0006 37.382 16.4896 37.2836 16.0584C37.1789 15.5974 37.4445 14.8865 37.7016 14.1974C38.068 13.2154 38.4469 12.1998 38.0258 11.3271C37.5969 10.4396 36.5547 10.1013 35.5469 9.77322C34.857 9.549 34.1445 9.31775 33.8594 8.96071C33.5742 8.60368 33.5023 7.85056 33.4359 7.12556C33.3359 6.074 33.2367 4.98728 32.4703 4.37478C31.7039 3.76228 30.6297 3.90603 29.5859 4.04821C28.8609 4.14431 28.1109 4.24353 27.6898 4.04118C27.2844 3.84509 26.9016 3.20681 26.532 2.58884C25.9852 1.67634 25.4195 0.731808 24.45 0.511496C23.5125 0.298996 22.6148 0.891183 21.7438 1.46306C21.1242 1.87478 20.4836 2.29275 20 2.29275C19.5164 2.29275 18.8758 1.87478 18.2562 1.46462C17.3852 0.892746 16.4844 0.301339 15.5469 0.513058C14.5773 0.733371 14.0117 1.6779 13.4648 2.5904C13.0953 3.20837 12.7125 3.84665 12.307 4.04275C11.8859 4.24509 11.1352 4.14587 10.4109 4.04978C9.36719 3.9115 8.28828 3.76775 7.52656 4.37634C6.76484 4.98493 6.66406 6.074 6.56719 7.12478C6.50078 7.84978 6.43203 8.599 6.14375 8.95993C5.85547 9.32087 5.14609 9.54821 4.45625 9.77243C3.44844 10.0998 2.40625 10.4388 1.97734 11.3263C1.55625 12.199 1.93516 13.2146 2.30156 14.1967C2.55859 14.8849 2.82422 15.5967 2.71953 16.0576C2.62109 16.4888 2.0875 16.9998 1.57109 17.4935C0.798438 18.2326 0 18.9967 0 19.9998C0 21.0029 0.798438 21.767 1.57109 22.506C2.0875 22.9998 2.62109 23.5107 2.71953 23.942C2.82422 24.4029 2.55859 25.1138 2.30156 25.8029C1.93516 26.7849 1.55625 27.8006 1.97734 28.6732C2.40625 29.5607 3.44844 29.899 4.45312 30.2271C5.14297 30.4513 5.85547 30.6826 6.14062 31.0396C6.42578 31.3967 6.49766 32.1498 6.56406 32.8748C6.66094 33.9256 6.76016 35.0123 7.52656 35.6232C8.29297 36.2342 9.36719 36.0881 10.4109 35.9498C11.1359 35.8537 11.8859 35.7545 12.307 35.9568C12.7125 36.1529 13.0953 36.7912 13.4648 37.4092C14.0117 38.3217 14.5773 39.2662 15.5469 39.4865C15.6774 39.5156 15.8108 39.5303 15.9445 39.5303C16.7375 39.5303 17.507 39.0256 18.2531 38.5349C18.8727 38.1279 19.5133 37.7068 19.9969 37.7068C20.4805 37.7068 21.1211 38.1279 21.7406 38.5349C22.6117 39.1068 23.5117 39.6982 24.4469 39.4865C25.4164 39.2662 25.982 38.3217 26.5289 37.4092C26.8984 36.7912 27.2813 36.1529 27.6867 35.9568C28.1078 35.7545 28.8586 35.8537 29.5828 35.9498C30.6266 36.0881 31.7055 36.2318 32.4672 35.6232C33.2289 35.0146 33.3328 33.9256 33.4297 32.8748C33.4961 32.1498 33.5648 31.4006 33.8531 31.0396C34.1414 30.6787 34.8508 30.4513 35.5406 30.2271C36.5484 29.8998 37.5906 29.5607 38.0195 28.6732C38.4406 27.8006 38.0617 26.7849 37.6953 25.8029C37.4383 25.1146 37.1727 24.4029 37.2773 23.942C37.3758 23.5107 37.9094 22.9998 38.4258 22.506C39.2016 21.767 40 21.0029 40 19.9998C40 18.9967 39.2016 18.2326 38.4289 17.4935L38.432 17.4943ZM37.6219 21.6599C36.9805 22.274 36.3172 22.9099 36.1414 23.6826C35.9586 24.4857 36.2867 25.3638 36.6031 26.2138C36.8844 26.9654 37.1742 27.7428 36.9703 28.167C36.7594 28.6037 35.9586 28.8638 35.1844 29.1154C34.3312 29.3935 33.4484 29.6802 32.9437 30.3115C32.4391 30.9427 32.3508 31.874 32.2687 32.7709C32.1945 33.5771 32.1188 34.4115 31.743 34.7107C31.3672 35.0099 30.5437 34.8974 29.743 34.7888C28.8469 34.6701 27.9211 34.5474 27.1844 34.9021C26.4625 35.2506 25.9883 36.042 25.5297 36.8076C25.1094 37.5107 24.675 38.2349 24.1937 38.3443C23.7445 38.4467 23.0562 37.9935 22.3906 37.556C21.6273 37.0545 20.8375 36.5357 20.0031 36.5357C19.1688 36.5357 18.3789 37.0545 17.6156 37.556C16.95 37.9935 16.2609 38.4459 15.8125 38.3443C15.3312 38.2349 14.8969 37.5092 14.4766 36.8076C14.018 36.042 13.5437 35.2506 12.8219 34.9021C12.457 34.7263 12.0461 34.6677 11.6156 34.6677C11.1627 34.6788 10.711 34.7192 10.2633 34.7888C9.4625 34.8951 8.63516 35.0045 8.26328 34.7107C7.89141 34.417 7.8125 33.574 7.73438 32.7677C7.65625 31.8748 7.56719 30.9435 7.05937 30.3123C6.55156 29.681 5.67188 29.3904 4.81875 29.1123C4.04453 28.8607 3.24375 28.6006 3.03281 28.1638C2.82891 27.742 3.11875 26.9646 3.4 26.2107C3.7125 25.3607 4.04453 24.4826 3.86172 23.6795C3.68594 22.9052 3.02266 22.2732 2.38125 21.6568C1.78672 21.0935 1.17188 20.5021 1.17188 19.9998C1.17188 19.4974 1.78672 18.906 2.38125 18.3404C3.02266 17.7263 3.68594 17.0904 3.86562 16.3177C4.04844 15.5146 3.72031 14.6365 3.40391 13.7865C3.12266 13.0349 2.83281 12.2576 3.03672 11.8334C3.24766 11.3967 4.05234 11.1365 4.82266 10.8849C5.67578 10.6068 6.55859 10.3201 7.06328 9.68884C7.56797 9.05759 7.65625 8.12868 7.73438 7.23181C7.8125 6.42556 7.88438 5.59118 8.26016 5.29196C8.63594 4.99275 9.45938 5.10525 10.2602 5.21384C11.1562 5.33259 12.082 5.45525 12.8188 5.10056C13.5406 4.75212 14.0148 3.96071 14.4734 3.19509C14.8937 2.49196 15.3281 1.76775 15.8094 1.65837C16.2586 1.55603 16.9469 2.00915 17.6125 2.44665C18.3758 2.94821 19.1656 3.46696 20 3.46696C20.8344 3.46696 21.6242 2.94821 22.3875 2.44665C23.0531 2.00915 23.7414 1.55681 24.1906 1.65837C24.6719 1.76775 25.1062 2.49353 25.5266 3.19509C25.9852 3.96071 26.4594 4.75212 27.1813 5.10056C27.918 5.45525 28.8445 5.33493 29.7398 5.21384C30.5406 5.10759 31.368 4.99743 31.7398 5.29196C32.1117 5.5865 32.1914 6.42556 32.2656 7.23181C32.3477 8.12868 32.4328 9.05603 32.9406 9.69118C33.4484 10.3263 34.3281 10.6092 35.1813 10.8873C35.9555 11.1388 36.7562 11.399 36.9672 11.8357C37.1711 12.2576 36.8813 13.0349 36.6 13.7888C36.2836 14.6388 35.9555 15.517 36.1383 16.3201C36.3141 17.0943 36.9773 17.7263 37.6187 18.3427C38.2133 18.906 38.8281 19.4974 38.8281 19.9998C38.8281 20.5021 38.2133 21.0935 37.6187 21.6592L37.6219 21.6599ZM20 6.02712C12.2953 6.02712 6.02734 12.2951 6.02734 19.9998C6.02734 27.7045 12.2953 33.9724 20 33.9724C27.7047 33.9724 33.9727 27.7045 33.9727 19.9998C33.9727 12.2951 27.7047 6.02712 20 6.02712ZM20 32.8006C12.9414 32.8006 7.19922 27.0584 7.19922 19.9998C7.19922 12.9412 12.9414 7.199 20 7.199C27.0586 7.199 32.8008 12.9412 32.8008 19.9998C32.8008 27.0584 27.0586 32.8006 20 32.8006ZM21.4195 21.4193C21.0215 21.8172 20.7505 22.3242 20.6407 22.8762C20.5308 23.4281 20.5871 24.0002 20.8025 24.5202C21.0178 25.0401 21.3825 25.4845 21.8504 25.7972C22.3183 26.1099 22.8685 26.2768 23.4313 26.2768C23.994 26.2768 24.5442 26.1099 25.0121 25.7972C25.48 25.4845 25.8447 25.0401 26.06 24.5202C26.2754 24.0002 26.3317 23.4281 26.2218 22.8762C26.112 22.3242 25.841 21.8172 25.443 21.4193C24.9091 20.8864 24.1856 20.5871 23.4313 20.5871C22.6769 20.5871 21.9534 20.8864 21.4195 21.4193ZM24.6148 24.6146C24.3808 24.8487 24.0826 25.0081 23.758 25.0727C23.4334 25.1373 23.0969 25.1042 22.7911 24.9775C22.4853 24.8509 22.2239 24.6364 22.0401 24.3612C21.8562 24.086 21.758 23.7624 21.758 23.4314C21.758 23.1004 21.8562 22.7769 22.0401 22.5017C22.2239 22.2265 22.4853 22.012 22.7911 21.8853C23.0969 21.7587 23.4334 21.7256 23.758 21.7902C24.0826 21.8547 24.3808 22.0142 24.6148 22.2482C24.9282 22.5622 25.1042 22.9878 25.1042 23.4314C25.1042 23.8751 24.9282 24.3006 24.6148 24.6146Z" fill="#582D7F" stroke="black" stroke-width="0.1"/>
</svg>
