<svg width="40" height="40" viewBox="0 0 40 40" fill="none" xmlns="http://www.w3.org/2000/svg">
<path d="M31.3595 31.9765C31.3595 34.7675 29.0969 37.03 26.3059 37.03H6.5V37.0285V37.0074V36.9859V36.9639V36.9416V36.9189V36.8957V36.8722V36.8482V36.8239V36.7991V36.774V36.7484V36.7224V36.6961V36.6693V36.6421V36.6146V36.5866V36.5583V36.5296V36.5005V36.471V36.4411V36.4108V36.3801V36.3491V36.3176V36.2858V36.2536V36.2211V36.1881V36.1548V36.1211V36.0871V36.0526V36.0178V35.9826V35.9471V35.9112V35.8749V35.8382V35.8012V35.7639V35.7261V35.688V35.6496V35.6108V35.5716V35.5321V35.4922V35.452V35.4115V35.3705V35.3293V35.2877V35.2457V35.2034V35.1607V35.1178V35.0744V35.0308V34.9868V34.9424V34.8977V34.8527V34.8074V34.7617V34.7157V34.6694V34.6227V34.5757V34.5284V34.4807V34.4328V34.3845V34.3359V34.287V34.2377V34.1882V34.1383V34.0881V34.0376V33.9868V33.9357V33.8842V33.8325V33.7804V33.7281V33.6754V33.6225V33.5692V33.5157V33.4618V33.4076V33.3532V33.2984V33.2434V33.1881V33.1324V33.0765V33.0203V32.9638V32.907V32.85V32.7926V32.735V32.6771V32.6189V32.5604V32.5017V32.4426V32.3833V32.3238V32.2639V32.2038V32.1434V32.0828V32.0218V31.9606V31.8992V31.8375V31.7755V31.7132V31.6507V31.588V31.5249V31.4617V31.3981V31.3344V31.2703V31.206V31.1415V31.0767V31.0117V30.9464V30.8809V30.8151V30.7491V30.6828V30.6163V30.5496V30.4826V30.4154V30.348V30.2803V30.2124V30.1443V30.0759V30.0073V29.9385V29.8695V29.8002V29.7307V29.661V29.591V29.5209V29.4505V29.3799V29.3091V29.2381V29.1668V29.0954V29.0237V28.9518V28.8798V28.8075V28.735V28.6623V28.5894V28.5163V28.443V28.3695V28.2958V28.2219V28.1478V28.0735V27.999V27.9243V27.8495V27.7744V27.6992V27.6237V27.5481V27.4723V27.3963V27.3202V27.2438V27.1673V27.0906V27.0137V26.9366V26.8594V26.782V26.7044V26.6267V26.5488V26.4707V26.3924V26.314V26.2354V26.1567V26.0778V25.9987V25.9195V25.8401V25.7606V25.6809V25.601V25.521V25.4409V25.3605V25.2801V25.1995V25.1187V25.0378V24.9568V24.8756V24.7943V24.7128V24.6312V24.5495V24.4676V24.3856V24.3034V24.2211V24.1387V24.0562V23.9735V23.8907V23.8078V23.7247V23.6416V23.5583V23.4748V23.3913V23.3076V23.2238V23.1399V23.0559V22.9718V22.8876V22.8032V22.7188V22.6342V22.5495V22.4647V22.3798V22.2948V22.2098V22.1246V22.0393V21.9539V21.8684V21.7828V21.6971V21.6113V21.5254V21.4395V21.3534V21.2673V21.1811V21.0947V21.0083V20.9218V20.8353V20.7486V20.6619V20.5751V20.4882V20.4012V20.3142V20.2271V20.1399V20.0527V19.9653V19.8779V19.7905V19.7029V19.6153V19.5277V19.44V19.3522V19.2644V19.1765V19.0885V19.0005V18.9124V18.8243V18.7361V18.6479V18.5596V18.4713V18.3829V18.2945V18.206V18.1175V18.029V17.9404V17.8518V17.7631V17.6744V17.5857V17.4969V17.4081V17.3192V17.2304V17.1415V17.0525V16.9636V16.8746V16.7856V16.6965V16.6075V16.5184V16.4293V16.3402V16.2511V16.1619V16.0728V15.9836V15.8944V15.8052V15.716V15.6268V15.5376V15.4483V15.3591V15.2698V15.1806V15.0914V15.0021V14.9129V14.8237V14.7344V14.6452V14.556V14.4668V14.3776V14.2884V14.1992V14.11V14.0209V13.9317V13.8426V13.7535V13.6644V13.5754V13.4863V13.3973V13.3083V13.2194V13.1304V13.0415V12.9526V12.8638V12.7749V12.6862V12.5974V12.5087V12.42V12.3314V12.2428V12.1542V12.0657V11.9772V11.8888V11.8004V11.712V11.6237V11.5355V11.4473V11.3592V11.2711V11.183V11.0951V11.0071V10.9193V10.8315V10.7437V10.6561V10.5684V10.4809V10.3934V10.306V10.2186V10.1314V10.0441V9.95701V9.86994V9.78295V9.69604V9.6092V9.52244V9.43576V9.34917V9.26265V9.17622V9.08987V9.00361V8.91743V8.83135V8.74535V8.65945V8.57363V8.48791V8.40229V8.31676V8.23133V8.146V8.06076V7.97563V7.8906V7.80567V7.72085V7.63614V7.55153V7.46703V7.38264V7.29836V7.21419V7.13014V7.0462V6.96238V6.87868V6.79509V6.71163V6.62828V6.54506V6.46196V6.37899V6.29614V6.21342V6.13083V6.04837V5.96604V5.88384V5.80178V5.71985V5.63806V5.5564V5.47488V5.39351V5.31227V5.23118V5.15023V5.06943V4.98877V4.90826V4.8279V4.74769V4.66763V4.58773V4.50797V4.42837V4.34893V4.26965V4.19052V4.11156V4.03276V3.95412V3.87564V3.79733V3.71918V3.64121V3.5634C6.5 3.23722 6.76745 2.96973 7.09375 2.96973H30.7658C31.0921 2.96973 31.3595 3.23722 31.3595 3.5634V31.9765Z" stroke="#582D7F"/>
<path d="M19.9037 31.9766C19.9037 34.088 20.9847 35.9469 22.6233 37.0301H6.17762C3.38657 37.0301 1.12402 34.7676 1.12402 31.9766V30.9444C1.12402 30.8312 1.21771 30.7375 1.3309 30.7375H19.6968C19.81 30.7375 19.9037 30.8313 19.9037 30.9444V31.9766Z" stroke="#582D7F"/>
<path fill-rule="evenodd" clip-rule="evenodd" d="M25.5031 19.6758H21.7306V21.918H25.5031V19.6758ZM20.4806 19.6758H10.7388V21.918H20.4806V19.6758ZM21.7306 12.6913V14.9336H25.5031V12.9183C25.5031 12.8563 25.4775 12.7995 25.4363 12.7582C25.395 12.717 25.3383 12.6913 25.2763 12.6913H21.7306ZM21.7306 16.1836V18.4258H25.5031V16.1836H21.7306ZM21.7306 23.168V25.4102H25.2763C25.3384 25.4102 25.395 25.3845 25.4363 25.3433C25.4775 25.302 25.5031 25.2453 25.5031 25.1833V23.168H21.7306ZM20.4806 25.4102V23.168H10.7388V25.1832C10.7388 25.2452 10.7644 25.302 10.8056 25.3432C10.8469 25.3845 10.9036 25.4101 10.9656 25.4101H20.4806V25.4102ZM20.4806 18.4258V16.1836H10.7388V18.4258H20.4806ZM20.4806 14.9336V12.6913H10.9657C10.9036 12.6913 10.847 12.717 10.8057 12.7582C10.7645 12.7995 10.7388 12.8562 10.7388 12.9183V14.9336H20.4806ZM10.9657 11.4413H25.2763C25.6834 11.4413 26.0528 11.6071 26.3201 11.8745C26.5874 12.1418 26.7532 12.5112 26.7532 12.9183V15.5586V19.0508V22.543V25.1832C26.7532 25.5903 26.5874 25.9597 26.3201 26.227C26.0528 26.4944 25.6834 26.6602 25.2763 26.6602H10.9657C10.5586 26.6602 10.1892 26.4944 9.92189 26.227C9.65455 25.9597 9.48877 25.5903 9.48877 25.1832V22.543V19.0508V15.5586V12.9183C9.48877 12.5112 9.65455 12.1418 9.92189 11.8745C10.1892 11.6071 10.5585 11.4413 10.9657 11.4413ZM26.1281 5.27588C26.4733 5.27588 26.7531 5.55572 26.7531 5.90088C26.7531 6.24603 26.4733 6.52588 26.1281 6.52588H16.1167C15.7715 6.52588 15.4917 6.24603 15.4917 5.90088C15.4917 5.55572 15.7715 5.27588 16.1167 5.27588H26.1281ZM26.1281 7.69994C26.4733 7.69994 26.7531 7.97978 26.7531 8.32494C26.7531 8.6701 26.4733 8.94994 26.1281 8.94994H20.781C20.4359 8.94994 20.156 8.6701 20.156 8.32494C20.156 7.97978 20.4359 7.69994 20.781 7.69994H26.1281Z" fill="#582D7F"/>
<path d="M31.9675 19.774C35.9999 19.9973 39.0878 23.4473 38.8644 27.4797C38.6411 31.5121 35.1912 34.6 31.1588 34.3766C27.1264 34.1533 24.0385 30.7034 24.2618 26.671C24.4852 22.6386 27.9351 19.5507 31.9675 19.774Z" fill="white" stroke="#582D7F"/>
<path fill-rule="evenodd" clip-rule="evenodd" d="M30.5742 22.6305C31.3947 23.4505 31.398 24.7797 30.5773 25.601C29.7573 26.4215 28.4281 26.4248 27.6068 25.6041C26.7863 24.7841 26.7829 23.4549 27.6036 22.6336C28.4236 21.8131 29.7529 21.8098 30.5742 22.6305ZM28.4875 23.5126C28.155 23.8453 28.1522 24.3871 28.4857 24.7204C28.8185 25.0529 29.3603 25.0555 29.6935 24.7221C30.026 24.3894 30.0287 23.8476 29.6953 23.5143C29.3626 23.1818 28.8207 23.179 28.4875 23.5126ZM35.5201 28.5502C36.3351 29.3646 36.3383 30.7051 35.5233 31.5208C34.7034 32.3412 33.374 32.3447 32.5528 31.5239C31.7322 30.7039 31.7289 29.3747 32.5496 28.5533C33.3695 27.7328 34.6989 27.7295 35.5201 28.5502ZM34.6412 29.434C34.3085 29.1015 33.7666 29.0988 33.4334 29.4322C33.101 29.765 33.0982 30.3069 33.4317 30.6401C33.7643 30.9725 34.3063 30.9752 34.6395 30.6418C34.9714 30.3096 34.974 29.7666 34.6412 29.434ZM29.3215 31.2519C29.1302 31.5177 28.7596 31.5781 28.4938 31.3868C28.228 31.1955 28.1676 30.8248 28.3589 30.559L33.8953 22.8484C34.0867 22.5826 34.4573 22.5222 34.7231 22.7136C34.9889 22.9049 35.0493 23.2755 34.8579 23.5413L29.3215 31.2519Z" fill="#582D7F"/>
<rect x="6" y="31.2402" width="1" height="5.29" fill="white"/>
</svg>
