<svg width="40" height="40" viewBox="0 0 40 40" fill="none" xmlns="http://www.w3.org/2000/svg">
<g clip-path="url(#clip0_230_277)">
<path d="M15.9126 7.10013C14.8459 8.16639 14.1194 9.52503 13.825 11.0042C13.5305 12.4834 13.6813 14.0167 14.2584 15.4102C14.8354 16.8036 15.8127 17.9947 17.0667 18.8326C18.3207 19.6706 19.795 20.1179 21.3032 20.1179C22.8114 20.1179 24.2858 19.6706 25.5398 18.8326C26.7938 17.9947 27.7711 16.8036 28.3481 15.4102C28.9251 14.0167 29.0759 12.4834 28.7815 11.0042C28.487 9.52503 27.7605 8.16639 26.6939 7.10013C25.2624 5.67387 23.324 4.87305 21.3032 4.87305C19.2825 4.87305 17.3441 5.67387 15.9126 7.10013ZM25.8376 17.0251C24.9408 17.9219 23.7982 18.5326 22.5543 18.7801C21.3104 19.0275 20.0211 18.9005 18.8493 18.4151C17.6776 17.9298 16.6761 17.1079 15.9715 16.0533C15.2669 14.9988 14.8908 13.759 14.8908 12.4908C14.8908 11.2225 15.2669 9.98271 15.9715 8.92818C16.6761 7.87365 17.6776 7.05175 18.8493 6.5664C20.0211 6.08104 21.3104 5.95405 22.5543 6.20146C23.7982 6.44888 24.9408 7.05959 25.8376 7.95638C27.0387 9.15978 27.7132 10.7905 27.7132 12.4908C27.7132 14.191 27.0387 15.8217 25.8376 17.0251Z" fill="#582D7F"/>
<path d="M38.8752 25.4625L33.4002 20.3V3.7125C33.4002 3.54674 33.3343 3.38777 33.2171 3.27056C33.0999 3.15335 32.941 3.0875 32.7752 3.0875H29.1252V0.625C29.1252 0.45924 29.0593 0.300269 28.9421 0.183058C28.8249 0.065848 28.666 0 28.5002 0L0.856445 0C0.690685 0 0.531714 0.065848 0.414504 0.183058C0.297293 0.300269 0.231445 0.45924 0.231445 0.625V36.2875C0.231445 36.4533 0.297293 36.6122 0.414504 36.7294C0.531714 36.8466 0.690685 36.9125 0.856445 36.9125H4.51269V39.4125C4.51269 39.5783 4.57854 39.7372 4.69575 39.8544C4.81296 39.9716 4.97193 40.0375 5.1377 40.0375H32.7877C32.9535 40.0375 33.1124 39.9716 33.2296 39.8544C33.3468 39.7372 33.4127 39.5783 33.4127 39.4125V28.475L34.6627 29.6813C34.939 29.9585 35.2672 30.1785 35.6286 30.3286C35.9901 30.4788 36.3776 30.5561 36.7689 30.5562C37.5327 30.5572 38.2664 30.2588 38.8127 29.725C38.9189 29.62 39.0171 29.5072 39.1064 29.3875C39.5585 28.8198 39.7849 28.1051 39.7422 27.3807C39.6995 26.6563 39.3907 25.9732 38.8752 25.4625ZM29.1252 5.625V4.31875H32.1814V19.1437L31.9752 18.95C31.86 18.8446 31.7095 18.7861 31.5533 18.7861C31.3972 18.7861 31.2467 18.8446 31.1314 18.95L30.9564 19.1187L29.9314 18.125C31.1536 16.2542 31.733 14.0361 31.5819 11.8066C31.4308 9.5771 30.5574 7.45751 29.0939 5.76875C29.1091 5.72198 29.1196 5.67383 29.1252 5.625ZM30.1002 20L28.8064 21.2938L27.9064 20.3938C28.1377 20.2 28.3689 20 28.5877 19.7687C28.8064 19.5375 29.0064 19.3188 29.2127 19.0875L30.1002 20ZM30.3939 12.5C30.3908 14.6003 29.6599 16.6345 28.3255 18.2564C26.9911 19.8782 25.1357 20.9874 23.0754 21.3951C21.0151 21.8028 18.8772 21.4837 17.0257 20.4922C15.1742 19.5008 13.7236 17.8982 12.9209 15.9574C12.1182 14.0166 12.013 11.8575 12.6233 9.84789C13.2335 7.83824 14.5215 6.10225 16.2679 4.93551C18.0142 3.76877 20.111 3.24342 22.2012 3.4489C24.2914 3.65439 26.2457 4.57801 27.7314 6.0625C28.5785 6.90643 29.2499 7.90986 29.7069 9.0148C30.1639 10.1197 30.3974 11.3043 30.3939 12.5ZM1.4627 35.6813V1.2125H27.9127V4.6C25.9376 2.9492 23.4159 2.09779 20.8444 2.21347C18.2729 2.32915 15.8378 3.40353 14.0189 5.225C12.2398 7.0304 11.1888 9.42845 11.0671 11.9603C10.9455 14.4921 11.7616 16.9799 13.3595 18.9476C14.9573 20.9153 17.2246 22.2247 19.7275 22.6253C22.2303 23.0258 24.793 22.4895 26.9252 21.1188L27.9502 22.1437L27.7752 22.3125C27.6597 22.4289 27.5946 22.586 27.5939 22.75C27.5959 22.8321 27.614 22.913 27.6473 22.988C27.6805 23.0631 27.7282 23.1309 27.7877 23.1875L27.9127 23.3V35.6813H1.4627ZM32.1814 38.8063H5.72519V36.875H28.5189C28.6847 36.875 28.8437 36.8092 28.9609 36.6919C29.0781 36.5747 29.1439 36.4158 29.1439 36.25V24.375L32.2002 27.2625L32.1814 38.8063ZM38.1689 28.65C38.0975 28.7403 38.0202 28.8259 37.9377 28.9062C37.6043 29.214 37.1634 29.3786 36.7099 29.3646C36.2563 29.3506 35.8264 29.159 35.5127 28.8313L29.0752 22.75L31.5752 20.25L32.3627 20.9875L38.0314 26.3375C38.3285 26.6382 38.5062 27.0366 38.5314 27.4585C38.5567 27.8804 38.4279 28.2972 38.1689 28.6313V28.65Z" fill="#582D7F"/>
<path d="M22.9686 24.0688H6.39982C6.26468 24.1027 6.14472 24.1808 6.05902 24.2906C5.97331 24.4004 5.92676 24.5358 5.92676 24.6751C5.92676 24.8144 5.97331 24.9497 6.05902 25.0596C6.14472 25.1694 6.26468 25.2475 6.39982 25.2813H22.9686C23.1037 25.2475 23.2237 25.1694 23.3094 25.0596C23.3951 24.9497 23.4416 24.8144 23.4416 24.6751C23.4416 24.5358 23.3951 24.4004 23.3094 24.2906C23.2237 24.1808 23.1037 24.1027 22.9686 24.0688ZM22.9686 27.6688H6.39982C6.26468 27.7027 6.14472 27.7808 6.05902 27.8906C5.97331 28.0005 5.92676 28.1358 5.92676 28.2751C5.92676 28.4144 5.97331 28.5497 6.05902 28.6596C6.14472 28.7694 6.26468 28.8475 6.39982 28.8813H22.9686C23.1037 28.8475 23.2237 28.7694 23.3094 28.6596C23.3951 28.5497 23.4416 28.4144 23.4416 28.2751C23.4416 28.1358 23.3951 28.0005 23.3094 27.8906C23.2237 27.7808 23.1037 27.7027 22.9686 27.6688ZM22.9686 31.2501H6.39982C6.26468 31.284 6.14472 31.362 6.05902 31.4719C5.97331 31.5817 5.92676 31.717 5.92676 31.8563C5.92676 31.9957 5.97331 32.131 6.05902 32.2408C6.14472 32.3507 6.26468 32.4287 6.39982 32.4626H22.9686C23.1037 32.4287 23.2237 32.3507 23.3094 32.2408C23.3951 32.131 23.4416 31.9957 23.4416 31.8563C23.4416 31.717 23.3951 31.5817 23.3094 31.4719C23.2237 31.362 23.1037 31.284 22.9686 31.2501Z" fill="#582D7F"/>
</g>
<defs>
<clipPath id="clip0_230_277">
<rect width="40" height="40" fill="white"/>
</clipPath>
</defs>
</svg>
