<svg width="40" height="40" viewBox="0 0 40 40" fill="none" xmlns="http://www.w3.org/2000/svg">
<g clip-path="url(#clip0_230_316)">
<path d="M19.9954 13.7285C18.0106 13.7285 16.396 15.3472 16.396 17.3365C16.396 19.3209 18.0106 20.9355 19.9954 20.9355C21.9849 20.9355 23.6036 19.3209 23.6036 17.3365C23.6036 15.3472 21.9849 13.7285 19.9954 13.7285ZM19.9954 20.3295C18.345 20.3295 17.0021 18.9866 17.0021 17.3365C17.0021 15.6811 18.345 14.3346 19.9954 14.3346C21.6508 14.3346 22.9976 15.6811 22.9976 17.3365C22.9976 18.9866 21.6508 20.3295 19.9954 20.3295Z" fill="#582D7F"/>
<path d="M38.7878 19.3938H36.3654C36.0523 10.8426 29.1566 3.94693 20.606 3.63384V1.21202C20.606 0.877048 20.3346 0.605957 19.9999 0.605957C19.6652 0.605957 19.3938 0.877048 19.3938 1.21202V3.63384C10.8432 3.94693 3.94753 10.8426 3.63444 19.3938H1.21202C0.877351 19.3938 0.605957 19.6649 0.605957 19.9999C0.605957 20.3349 0.877351 20.606 1.21202 20.606H3.63444C3.94753 29.1566 10.8432 36.0523 19.3938 36.3654V38.7878C19.3938 39.1227 19.6652 39.3938 19.9999 39.3938C20.3346 39.3938 20.606 39.1227 20.606 38.7878V36.3654C29.1566 36.0523 36.0523 29.1566 36.3654 20.606H38.7878C39.1227 20.606 39.3938 20.3349 39.3938 19.9999C39.3938 19.6649 39.1227 19.3938 38.7878 19.3938ZM35.1532 19.3938H31.8809C31.5725 13.3098 26.6897 8.42674 20.606 8.11832V4.84602C28.4884 5.15771 34.8415 11.5113 35.1532 19.3938ZM28.2462 20.606H31.2748C31.1323 23.2754 30.0644 25.6969 28.3806 27.5614C27.6709 25.2593 26.0591 23.3497 23.87 22.2786C23.7703 22.2294 23.6519 22.2395 23.5607 22.304C22.5105 23.0533 21.2765 23.4492 19.9921 23.4492C18.7049 23.4492 17.4738 23.0533 16.4321 22.3046C16.3407 22.2401 16.222 22.2288 16.1211 22.2791C13.9377 23.3557 12.3292 25.2649 11.6194 27.5615C9.93541 25.697 8.86753 23.2754 8.72499 20.606H11.7536C12.0883 20.606 12.3597 20.3349 12.3597 19.9999C12.3597 19.6649 12.0883 19.3938 11.7536 19.3938H8.72499C9.03202 13.6441 13.6442 9.03141 19.3938 8.72438V11.7536C19.3938 12.0886 19.6652 12.3597 19.9999 12.3597C20.3346 12.3597 20.606 12.0886 20.606 11.7536V8.72438C26.3556 9.03141 30.9678 13.6441 31.2748 19.3938H28.2462C27.9115 19.3938 27.6401 19.6649 27.6401 19.9999C27.6401 20.3349 27.9115 20.606 28.2462 20.606ZM19.9999 27.6396C19.6652 27.6396 19.3938 27.9107 19.3938 28.2457V31.2749C16.5616 31.1237 14.0026 29.9359 12.0984 28.0715C12.6854 25.842 14.1744 23.972 16.2304 22.903C17.3427 23.6576 18.6392 24.0554 19.9922 24.0554C21.3422 24.0554 22.6417 23.657 23.7617 22.9024C25.8228 23.9663 27.3149 25.8366 27.9017 28.0713C25.9974 29.9359 23.4383 31.1237 20.606 31.2749V28.2457C20.606 27.9106 20.3346 27.6396 19.9999 27.6396ZM19.3938 4.84602V8.11832C13.3101 8.42674 8.42729 13.3098 8.11893 19.3938H4.84662C5.15832 11.5113 11.5114 5.15771 19.3938 4.84602ZM4.84662 20.606H8.11893C8.42668 26.6792 13.2548 31.5697 19.3938 31.8809V35.1532C11.5114 34.8415 5.15832 28.4884 4.84662 20.606ZM20.606 35.1532V31.8809C26.7516 31.5694 31.5735 26.6712 31.8809 20.606H35.1532C34.8415 28.4884 28.4884 34.8415 20.606 35.1532Z" fill="#582D7F"/>
</g>
<defs>
<clipPath id="clip0_230_316">
<rect width="40" height="40" fill="white"/>
</clipPath>
</defs>
</svg>
