<svg width="40" height="30" viewBox="0 0 40 30" fill="none" xmlns="http://www.w3.org/2000/svg">
<path d="M2.41959 9.38133H6.86485C7.02025 9.38133 7.16929 9.3196 7.27917 9.20972C7.38906 9.09983 7.45079 8.9508 7.45079 8.7954C7.45079 8.64 7.38906 8.49096 7.27917 8.38108C7.16929 8.27119 7.02025 8.20946 6.86485 8.20946H2.41959C2.26419 8.20946 2.11515 8.27119 2.00527 8.38108C1.89538 8.49096 1.83365 8.64 1.83365 8.7954C1.83365 8.9508 1.89538 9.09983 2.00527 9.20972C2.11515 9.3196 2.26419 9.38133 2.41959 9.38133ZM1.24771 11.7251H6.86485C7.02025 11.7251 7.16929 11.6634 7.27917 11.5535C7.38906 11.4436 7.45079 11.2945 7.45079 11.1391C7.45079 10.9837 7.38906 10.8347 7.27917 10.7248C7.16929 10.6149 7.02025 10.5532 6.86485 10.5532H1.24771C1.09231 10.5532 0.943275 10.6149 0.833391 10.7248C0.723506 10.8347 0.661773 10.9837 0.661773 11.1391C0.661773 11.2945 0.723506 11.4436 0.833391 11.5535C0.943275 11.6634 1.09231 11.7251 1.24771 11.7251ZM3.59146 7.03758H6.86485C7.02025 7.03758 7.16929 6.97585 7.27917 6.86597C7.38906 6.75608 7.45079 6.60705 7.45079 6.45165C7.45079 6.29625 7.38906 6.14721 7.27917 6.03733C7.16929 5.92744 7.02025 5.86571 6.86485 5.86571H3.59146C3.43606 5.86571 3.28703 5.92744 3.17714 6.03733C3.06726 6.14721 3.00552 6.29625 3.00552 6.45165C3.00552 6.60705 3.06726 6.75608 3.17714 6.86597C3.28703 6.97585 3.43606 7.03758 3.59146 7.03758ZM39.4141 28.5156H37.8928C38.6236 27.8568 39.1105 26.9704 39.2744 26.0001C39.4631 24.8812 39.2145 23.7325 38.58 22.7917L38.9147 22.5925C38.9809 22.5532 39.0386 22.5012 39.0846 22.4396C39.1307 22.3779 39.1641 22.3078 39.183 22.2332C39.202 22.1586 39.206 22.0811 39.195 22.0049C39.1839 21.9288 39.158 21.8555 39.1187 21.7894C38.5825 20.8898 37.791 20.1699 36.8447 19.7213C35.8984 19.2726 34.8401 19.1154 33.8042 19.2696C33.305 18.081 32.7912 16.3878 32.2935 14.7466C32.0031 13.7891 31.7052 12.807 31.4071 11.9143H31.7252C31.8021 11.9143 31.8783 11.8992 31.9494 11.8697C32.0205 11.8403 32.0851 11.7971 32.1395 11.7427C32.1939 11.6883 32.2371 11.6237 32.2665 11.5526C32.2959 11.4815 32.3111 11.4053 32.3111 11.3284V7.88372C32.3111 7.80678 32.2959 7.73058 32.2665 7.65949C32.2371 7.5884 32.1939 7.52381 32.1395 7.4694C32.0851 7.41499 32.0205 7.37183 31.9494 7.34238C31.8783 7.31294 31.8021 7.29778 31.7252 7.29779H29.3529C28.8429 7.29845 28.3474 7.46771 27.9436 7.77922C27.5398 8.09073 27.2503 8.527 27.1202 9.02012H24.8782C24.7228 9.02012 24.5738 9.08185 24.4639 9.19174C24.354 9.30162 24.2923 9.45066 24.2923 9.60606C24.2923 9.76146 24.354 9.91049 24.4639 10.0204C24.5738 10.1303 24.7228 10.192 24.8782 10.192H27.1202C27.2071 10.5218 27.3661 10.8282 27.5858 11.089C27.5909 11.1234 27.5991 11.1573 27.6102 11.1903C27.9366 12.1455 28.5113 14.2914 28.5526 14.4862C29.1935 17.5132 29.2832 21.2699 26.0707 21.9774C25.3689 22.1281 24.6398 22.0902 23.9574 21.8675C23.2751 21.6448 22.6639 21.2453 22.1862 20.7096C20.9775 19.3256 20.8972 17.1956 21.9905 15.5286C22.2922 15.3364 22.5234 15.0515 22.6493 14.7166C22.7753 14.3817 22.7892 14.0151 22.6889 13.6716C22.5886 13.3282 22.3796 13.0266 22.0933 12.8121C21.807 12.5976 21.4588 12.4819 21.101 12.4822H20.6008C20.6106 12.4175 20.6159 12.3522 20.6164 12.2867V10.0582C21.4346 9.98431 22.2208 9.70515 22.9025 9.2466C23.5841 8.78805 24.139 8.16494 24.5158 7.43496C24.8926 6.70498 25.0792 5.89172 25.0582 5.07049C25.0372 4.24925 24.8093 3.44659 24.3957 2.73682C23.9821 2.02704 23.396 1.4331 22.6919 1.00998C21.9877 0.586856 21.1882 0.348237 20.3673 0.316212C19.5465 0.284187 18.7308 0.459792 17.9958 0.826768C17.2608 1.19374 16.6303 1.74023 16.1626 2.41562H9.98985C9.62738 2.41603 9.27987 2.56021 9.02356 2.81652C8.76725 3.07283 8.62308 3.42034 8.62267 3.78281V12.2867C8.62308 12.6492 8.76725 12.9967 9.02356 13.253C9.27987 13.5093 9.62738 13.6535 9.98985 13.6539H10.9024C10.8101 13.9554 10.8062 14.2771 10.8914 14.5808C10.9765 14.8844 11.1471 15.1572 11.3827 15.3667C11.1804 15.4609 10.9824 15.5626 10.7903 15.6736C8.78246 16.8339 7.0837 19.0939 6.46248 21.4312C6.07561 22.8867 6.16157 24.209 6.70267 25.1602C6.70351 25.1618 6.7044 25.1633 6.70525 25.1649C6.70948 25.1723 6.71314 25.1802 6.71741 25.1875C6.7194 25.1909 6.72191 25.1939 6.72395 25.1972C6.73321 25.2124 6.74314 25.2272 6.75377 25.2414C6.75689 25.2457 6.7597 25.2502 6.76295 25.2543C6.77681 25.2719 6.79166 25.2886 6.80742 25.3045C6.81182 25.309 6.81646 25.3131 6.821 25.3174C6.83372 25.3295 6.84699 25.341 6.86081 25.352C6.86557 25.3557 6.87028 25.3595 6.87515 25.3631C6.89277 25.3763 6.91113 25.3885 6.93013 25.3996L6.93221 25.401C6.9528 25.4127 6.97409 25.4232 6.99596 25.4323C7.00045 25.4342 7.00508 25.4357 7.00961 25.4375C7.02651 25.4441 7.04382 25.45 7.06152 25.4552C7.06822 25.4571 7.07492 25.4589 7.08169 25.4606C7.08797 25.4622 7.094 25.4643 7.10037 25.4656C7.11139 25.468 7.12238 25.4692 7.13337 25.471C7.13954 25.4719 7.14563 25.4732 7.15184 25.4739C7.17597 25.4771 7.20027 25.4788 7.22461 25.479C7.226 25.479 7.22733 25.4786 7.22872 25.4786L7.2314 25.4786L9.3087 25.4516C9.33765 26.0343 9.48244 26.6054 9.73461 27.1315C9.98679 27.6575 10.3413 28.1281 10.7774 28.5156H0.585938C0.430537 28.5156 0.281502 28.5774 0.171617 28.6872C0.0617325 28.7971 0 28.9462 0 29.1016C0 29.257 0.0617325 29.406 0.171617 29.5159C0.281502 29.6258 0.430537 29.6875 0.585938 29.6875H39.4141C39.5695 29.6875 39.7185 29.6258 39.8284 29.5159C39.9383 29.406 40 29.257 40 29.1016C40 28.9462 39.9383 28.7971 39.8284 28.6872C39.7185 28.5774 39.5695 28.5156 39.4141 28.5156ZM34.5813 20.3861C35.1934 20.3856 35.7979 20.5218 36.3507 20.7848C36.9034 21.0478 37.3904 21.4311 37.776 21.9064L37.4951 22.0736C37.4281 22.0983 37.3661 22.1352 37.3124 22.1823L30.5686 26.1953C30.192 25.2845 30.1556 24.2686 30.466 23.3332C30.7763 22.3977 31.4128 21.6051 32.2591 21.1001L32.4915 20.9618C33.1233 20.5847 33.8455 20.3858 34.5813 20.3861ZM35.8086 25.406C35.7744 25.606 35.6724 25.788 35.5197 25.9216C35.367 26.0552 35.173 26.1321 34.9703 26.1395C34.7676 26.1469 34.5685 26.0843 34.4065 25.9622C34.2445 25.8401 34.1295 25.6659 34.0808 25.469L35.5339 24.6043C35.6432 24.7043 35.7256 24.83 35.7736 24.9701C35.8216 25.1102 35.8337 25.2601 35.8086 25.406H35.8086ZM28.2165 9.60606C28.2168 9.30477 28.3367 9.01593 28.5497 8.80288C28.7627 8.58984 29.0516 8.47 29.3529 8.46966H31.1392V10.7425H29.3529C29.0516 10.7421 28.7627 10.6223 28.5497 10.4092C28.3367 10.1962 28.2168 9.90734 28.2165 9.60606ZM21.101 13.6541C21.2284 13.654 21.3506 13.7044 21.441 13.7941C21.5313 13.8839 21.5825 14.0058 21.5833 14.1332C21.5841 14.2605 21.5345 14.383 21.4452 14.4739C21.356 14.5648 21.2344 14.6167 21.107 14.6182H15.5318C15.1677 14.5975 14.8028 14.5976 14.4388 14.6185H12.4844C12.3565 14.6185 12.2338 14.5677 12.1434 14.4773C12.0529 14.3869 12.0021 14.2642 12.0021 14.1363C12.0021 14.0084 12.0529 13.8857 12.1434 13.7953C12.2338 13.7049 12.3565 13.6541 12.4844 13.6541H21.101ZM20.1736 1.48438C20.9077 1.48428 21.6253 1.70186 22.2357 2.10962C22.8461 2.51739 23.3219 3.097 23.6029 3.77518C23.8839 4.45336 23.9575 5.19963 23.8143 5.91962C23.6712 6.63961 23.3177 7.30099 22.7987 7.8201C22.2797 8.33921 21.6183 8.69275 20.8984 8.836C20.1784 8.97926 19.4321 8.90579 18.7539 8.62489C18.0757 8.344 17.496 7.86829 17.0881 7.25793C16.6803 6.64757 16.4626 5.92997 16.4626 5.19589C16.4636 4.21194 16.8549 3.26859 17.5506 2.57279C18.2463 1.87698 19.1896 1.48556 20.1736 1.48438ZM9.98985 12.482C9.93807 12.482 9.88843 12.4614 9.85181 12.4248C9.8152 12.3881 9.7946 12.3385 9.79454 12.2867V3.78281C9.7946 3.73103 9.8152 3.68138 9.85181 3.64477C9.88843 3.60815 9.93807 3.58756 9.98985 3.5875H15.5641C15.3273 4.26506 15.2428 4.98652 15.3166 5.70047C15.3905 6.41442 15.6209 7.1033 15.9915 7.71801C16.3621 8.33272 16.8636 8.85814 17.4605 9.25683C18.0573 9.65552 18.7348 9.91766 19.4445 10.0246V12.2867C19.4445 12.3385 19.4239 12.3881 19.3873 12.4248C19.3507 12.4614 19.301 12.482 19.2492 12.482H9.98985ZM7.59502 21.7323C8.14034 19.6805 9.62471 17.7006 11.3766 16.6882C12.3246 16.153 13.3841 15.8456 14.4713 15.7904H20.5235C19.6908 17.7232 19.9652 19.9481 21.3036 21.4805C21.9205 22.1732 22.7101 22.6901 23.5917 22.9784C24.4734 23.2667 25.4158 23.3162 26.3228 23.1218C29.5613 22.4086 30.7603 19.2556 29.699 14.2436C29.6591 14.055 29.353 12.9038 29.0565 11.8946C29.1548 11.9075 29.2538 11.9141 29.3529 11.9143H30.1698C30.5037 12.883 30.8428 14.001 31.172 15.0867C31.6586 16.6913 32.1605 18.345 32.6633 19.5773C32.3966 19.6822 32.1387 19.8084 31.8922 19.9548L31.6599 20.093C31.0638 20.4456 30.5434 20.9128 30.1291 21.4678C29.7147 22.0228 29.4146 22.6545 29.246 23.3263C29.1883 23.5551 29.1457 23.7876 29.1187 24.022L20.1439 24.1387C19.552 21.4192 17.6532 19.2404 15.2964 18.6365C13.6913 18.2253 11.8678 18.5477 10.2933 19.521C9.07452 20.2835 8.08306 21.3596 7.4226 22.6366C7.45742 22.3313 7.51505 22.029 7.59502 21.7323ZM7.99162 24.2967C8.50617 22.7151 9.5424 21.3628 10.9095 20.5177C12.2145 19.7111 13.7075 19.4391 15.0056 19.7717C16.8717 20.2498 18.3943 21.9709 18.9445 24.1543L7.99162 24.2967ZM14.5724 25.3831C14.5375 25.5864 14.4325 25.7711 14.2757 25.905C14.1189 26.039 13.9201 26.1138 13.7139 26.1165C13.5076 26.1192 13.307 26.0495 13.1467 25.9197C12.9864 25.7899 12.8767 25.608 12.8366 25.4057L14.5724 25.3831ZM13.7027 28.4609C12.8822 28.4599 12.0928 28.1467 11.4947 27.585C10.8966 27.0233 10.5346 26.2551 10.4821 25.4363L11.6565 25.421C11.7036 25.936 11.9432 26.4143 12.3275 26.7604C12.7117 27.1065 13.2123 27.295 13.7294 27.2882C14.2465 27.2815 14.742 27.0801 15.1171 26.7241C15.4922 26.3681 15.7193 25.8838 15.7531 25.3678L16.9274 25.3525C16.8957 26.1869 16.5422 26.9766 15.9411 27.5561C15.3399 28.1356 14.5377 28.4599 13.7027 28.4609ZM16.6281 28.5156C17.0784 28.1152 17.4415 27.6264 17.6947 27.0796C17.9478 26.5328 18.0857 25.9397 18.0997 25.3372L19.6236 25.3174C19.6502 25.3189 19.6769 25.3186 19.7035 25.3164L29.1132 25.194C29.195 25.9454 29.4378 26.6704 29.8253 27.3194C29.8646 27.3855 29.9166 27.4433 29.9783 27.4893C30.0399 27.5353 30.1101 27.5688 30.1846 27.5877C30.2592 27.6067 30.3368 27.6107 30.4129 27.5997C30.4891 27.5886 30.5623 27.5627 30.6284 27.5233L31.0328 27.2827C31.2734 27.7468 31.5949 28.1643 31.982 28.5156H16.6281ZM36.8019 27.8919C36.4207 28.1615 35.9856 28.3452 35.5266 28.4303C35.0675 28.5155 34.5955 28.5 34.143 28.385C33.6905 28.27 33.2683 28.0582 32.9056 27.7642C32.5429 27.4702 32.2484 27.101 32.0422 26.6821L33.0557 26.079C33.1723 26.3461 33.3443 26.5855 33.5605 26.781C33.7767 26.9766 34.0319 27.1239 34.3094 27.2132C34.5869 27.3025 34.8802 27.3317 35.1698 27.2989C35.4595 27.2662 35.7388 27.1721 35.9893 27.0231C36.2398 26.874 36.4557 26.6733 36.6227 26.4344C36.7897 26.1955 36.9039 25.9238 36.9578 25.6373C37.0116 25.3508 37.0039 25.0562 36.9352 24.7729C36.8664 24.4897 36.7381 24.2243 36.5589 23.9944L37.5717 23.3917C37.8168 23.7377 37.9914 24.1286 38.0853 24.542C38.1793 24.9555 38.1909 25.3834 38.1194 25.8014C38.0479 26.2193 37.8948 26.619 37.6687 26.9777C37.4426 27.3365 37.1481 27.6471 36.8019 27.8919V27.8919ZM20.1736 5.78182H21.8633C22.0187 5.78182 22.1677 5.72009 22.2776 5.61021C22.3875 5.50032 22.4492 5.35129 22.4492 5.19589C22.4492 5.04049 22.3875 4.89145 22.2776 4.78157C22.1677 4.67168 22.0187 4.60995 21.8633 4.60995H20.7595V2.98062C20.7595 2.82522 20.6978 2.67618 20.5879 2.5663C20.478 2.45641 20.329 2.39468 20.1736 2.39468C20.0182 2.39468 19.8691 2.45641 19.7592 2.5663C19.6494 2.67618 19.5876 2.82522 19.5876 2.98062V5.19589C19.5876 5.35129 19.6494 5.50032 19.7593 5.61021C19.8691 5.72009 20.0182 5.78182 20.1736 5.78182Z" fill="#582D7F"/>
</svg>
