<svg width="40" height="40" viewBox="0 0 40 40" fill="none" xmlns="http://www.w3.org/2000/svg">
<g clip-path="url(#clip0_228_232)">
<path d="M14.7915 29.3749C13.2637 29.3749 12.0137 28.1249 12.0137 26.5971C12.0137 25.0693 13.2637 23.8193 14.7915 23.8193C16.3192 23.8193 17.5692 25.0693 17.5692 26.5971C17.5692 28.1249 16.3192 29.3749 14.7915 29.3749ZM14.7915 24.5138C13.6109 24.5138 12.7081 25.4166 12.7081 26.5971C12.7081 27.7777 13.6109 28.6804 14.7915 28.6804C15.972 28.6804 16.8748 27.7777 16.8748 26.5971C16.8748 25.4166 15.972 24.5138 14.7915 24.5138Z" fill="#582D7F" stroke="#582D7F" stroke-width="0.3"/>
<path d="M15.0001 25.2084L15.2778 25.8334C15.2778 25.9028 15.3473 25.9028 15.4167 25.9723L16.1112 26.0417C16.2501 26.0417 16.3195 26.2501 16.2501 26.3889L15.7639 26.8751C15.6945 26.9445 15.6945 27.0139 15.6945 27.0139L15.8334 27.7084C15.8334 27.8473 15.6945 27.9862 15.5556 27.9167L14.9306 27.5695H14.7223L14.0973 27.9167C13.9584 27.9862 13.8195 27.8473 13.8195 27.7084L13.9584 27.0139C13.9584 26.9445 13.9584 26.8751 13.8889 26.8751L13.4028 26.3889C13.2639 26.2501 13.3334 26.1112 13.5417 26.0417L14.2362 25.9723C14.3056 25.9723 14.3751 25.9028 14.3751 25.8334L14.6528 25.2084C14.7223 25.0695 14.8612 25.0695 15.0001 25.2084ZM31.4584 10.2778H14.0973C13.8889 10.2778 13.7501 10.1389 13.7501 9.93061C13.7501 9.72228 13.8889 9.58339 14.0973 9.58339H31.4584C31.6667 9.58339 31.8056 9.72228 31.8056 9.93061C31.8056 10.1389 31.6667 10.2778 31.4584 10.2778ZM31.4584 12.3612H10.6251C10.4167 12.3612 10.2778 12.2223 10.2778 12.0139C10.2778 11.8056 10.4167 11.6667 10.6251 11.6667H31.4584C31.6667 11.6667 31.8056 11.8056 31.8056 12.0139C31.8056 12.2223 31.6667 12.3612 31.4584 12.3612ZM31.4584 14.4445H10.6251C10.4167 14.4445 10.2778 14.3056 10.2778 14.0973C10.2778 13.8889 10.4167 13.7501 10.6251 13.7501H31.4584C31.6667 13.7501 31.8056 13.8889 31.8056 14.0973C31.8056 14.3056 31.6667 14.4445 31.4584 14.4445ZM31.4584 16.5278H10.6251C10.4167 16.5278 10.2778 16.3889 10.2778 16.1806C10.2778 15.9723 10.4167 15.8334 10.6251 15.8334H31.4584C31.6667 15.8334 31.8056 15.9723 31.8056 16.1806C31.8056 16.3889 31.6667 16.5278 31.4584 16.5278ZM31.4584 18.6112H10.6251C10.4167 18.6112 10.2778 18.4723 10.2778 18.2639C10.2778 18.0556 10.4167 17.9167 10.6251 17.9167H31.4584C31.6667 17.9167 31.8056 18.0556 31.8056 18.2639C31.8056 18.4723 31.6667 18.6112 31.4584 18.6112ZM25.9028 20.6945H10.6251C10.4167 20.6945 10.2778 20.5556 10.2778 20.3473C10.2778 20.1389 10.4167 20.0001 10.6251 20.0001H25.9028C26.1112 20.0001 26.2501 20.1389 26.2501 20.3473C26.2501 20.5556 26.1112 20.6945 25.9028 20.6945ZM31.4584 22.7778H25.2084C25.0001 22.7778 24.8612 22.6389 24.8612 22.4306C24.8612 22.2223 25.0001 22.0834 25.2084 22.0834H31.4584C31.6667 22.0834 31.8056 22.2223 31.8056 22.4306C31.8056 22.6389 31.6667 22.7778 31.4584 22.7778ZM31.4584 24.8612H22.4306C22.2223 24.8612 22.0834 24.7223 22.0834 24.5139C22.0834 24.3056 22.2223 24.1667 22.4306 24.1667H31.4584C31.6667 24.1667 31.8056 24.3056 31.8056 24.5139C31.8056 24.7223 31.6667 24.8612 31.4584 24.8612ZM31.4584 26.9445H22.4306C22.2223 26.9445 22.0834 26.8056 22.0834 26.5973C22.0834 26.3889 22.2223 26.2501 22.4306 26.2501H31.4584C31.6667 26.2501 31.8056 26.3889 31.8056 26.5973C31.8056 26.8056 31.6667 26.9445 31.4584 26.9445ZM31.4584 31.1112H22.4306C22.2223 31.1112 22.0834 30.9723 22.0834 30.7639C22.0834 30.5556 22.2223 30.4167 22.4306 30.4167H31.4584C31.6667 30.4167 31.8056 30.5556 31.8056 30.7639C31.8056 30.9723 31.6667 31.1112 31.4584 31.1112ZM27.9862 6.80561H14.0973C13.8889 6.80561 13.7501 6.66672 13.7501 6.45839V4.37505C13.7501 4.16672 13.8889 4.02783 14.0973 4.02783H27.9862C28.1945 4.02783 28.3334 4.16672 28.3334 4.37505V6.45839C28.3334 6.66672 28.1945 6.80561 27.9862 6.80561ZM14.4445 6.11117H27.6389V4.72228H14.4445V6.11117Z" fill="#582D7F" stroke="#582D7F" stroke-width="0.3"/>
<path d="M34.9307 33.1945C34.7223 33.1945 34.5834 33.0557 34.5834 32.8473V4.02789C34.5834 2.50011 33.3334 1.25011 31.8057 1.25011H4.02789C3.81955 1.25011 3.68066 1.11122 3.68066 0.902886C3.68066 0.694553 3.81955 0.555664 4.02789 0.555664H31.8057C33.7501 0.555664 35.2779 2.08344 35.2779 4.02789V32.8473C35.2779 33.0557 35.139 33.1945 34.9307 33.1945Z" fill="#582D7F" stroke="#582D7F" stroke-width="0.3"/>
<path d="M7.15289 36.3195C6.94455 36.3195 6.80566 36.1807 6.80566 35.9723V4.02789C6.80566 3.81955 6.94455 3.68066 7.15289 3.68066C7.36122 3.68066 7.50011 3.81955 7.50011 4.02789V35.9723C7.50011 36.1807 7.36122 36.3195 7.15289 36.3195Z" fill="#582D7F" stroke="#582D7F" stroke-width="0.3"/>
<path d="M35.9723 39.4445H10.2779C8.33344 39.4445 6.80566 37.9168 6.80566 35.9723C6.80566 35.764 6.94455 35.6251 7.15289 35.6251C7.36122 35.6251 7.50011 35.764 7.50011 35.9723C7.50011 37.5001 8.75011 38.7501 10.2779 38.7501C11.8057 38.7501 13.0557 37.5001 13.0557 35.9723C13.0557 34.4445 11.8057 33.1945 10.2779 33.1945C10.0696 33.1945 9.93066 33.0557 9.93066 32.8473C9.93066 32.639 10.0696 32.5001 10.2779 32.5001H35.9723C37.9168 32.5001 39.4445 34.0279 39.4445 35.9723C39.4445 37.9168 37.9168 39.4445 35.9723 39.4445ZM12.3612 38.7501H35.9723C37.5001 38.7501 38.7501 37.5001 38.7501 35.9723C38.7501 34.4445 37.5001 33.1945 35.9723 33.1945H12.3612C13.1946 33.8195 13.7501 34.8612 13.7501 35.9723C13.7501 37.0834 13.1946 38.1251 12.3612 38.7501ZM7.15289 7.50011H4.02789C2.08344 7.50011 0.555664 5.97233 0.555664 4.02789C0.555664 2.08344 2.08344 0.555664 4.02789 0.555664C5.97233 0.555664 7.50011 2.08344 7.50011 4.02789V7.15289C7.50011 7.36122 7.36122 7.50011 7.15289 7.50011ZM4.02789 1.25011C2.50011 1.25011 1.25011 2.50011 1.25011 4.02789C1.25011 5.55566 2.50011 6.80566 4.02789 6.80566H6.80566V4.02789C6.80566 2.50011 5.55566 1.25011 4.02789 1.25011ZM15.6946 31.1112C15.4862 31.1112 15.2779 31.0418 15.0696 30.9029C14.9307 30.8334 14.7223 30.8334 14.5834 30.9029C14.3057 31.1112 13.9584 31.1112 13.6112 31.0418C13.264 30.9723 13.0557 30.764 12.8473 30.4168C12.7779 30.2779 12.5696 30.139 12.4307 30.139C12.0834 30.139 11.8057 30.0001 11.5279 29.7918C11.2501 29.5834 11.1807 29.2362 11.1807 28.889C11.1807 28.6807 11.1112 28.5418 10.9029 28.4723C10.6251 28.3334 10.4168 28.0557 10.2779 27.7084C10.2084 27.3612 10.2779 27.014 10.4168 26.7362C10.4862 26.5973 10.4862 26.389 10.4168 26.2501C10.2084 25.9723 10.2084 25.6251 10.2779 25.2779C10.3473 24.9307 10.5557 24.7223 10.9029 24.514C11.0418 24.4445 11.1807 24.2362 11.1807 24.0973C11.1807 23.7501 11.3196 23.4723 11.5279 23.1945C11.7362 22.9862 12.0834 22.8473 12.4307 22.8473C12.639 22.8473 12.7779 22.7779 12.8473 22.5696C12.9862 22.2918 13.264 22.0834 13.6112 21.9445C13.9584 21.8751 14.3057 21.9445 14.5834 22.0834C14.7223 22.1529 14.9307 22.1529 15.0696 22.0834C15.3473 21.8751 15.6946 21.8751 16.0418 21.9445C16.389 22.014 16.5973 22.2223 16.8057 22.5696C16.8751 22.7084 17.0834 22.8473 17.2223 22.8473C17.5696 22.8473 17.8473 22.9862 18.1251 23.1945C18.4029 23.4029 18.4723 23.7501 18.4723 24.0973C18.4723 24.3057 18.5418 24.4445 18.7501 24.514C19.0279 24.6529 19.2362 24.9307 19.3751 25.2779C19.4446 25.6251 19.3751 25.9723 19.2362 26.2501C19.1668 26.389 19.1668 26.5973 19.2362 26.7362C19.4445 27.014 19.4446 27.3612 19.3751 27.7084C19.3057 28.0557 19.0973 28.264 18.7501 28.4723C18.6112 28.5418 18.4723 28.7501 18.4723 28.889C18.4723 29.2362 18.3334 29.514 18.1251 29.7918C17.9168 30.0001 17.5696 30.139 17.2223 30.139C17.014 30.139 16.8751 30.2084 16.8057 30.4168C16.6668 30.6945 16.389 30.9029 16.0418 31.0418C15.9029 31.1112 15.764 31.1112 15.6946 31.1112ZM14.7918 30.139C15.0001 30.139 15.2084 30.2084 15.4168 30.3473C15.5557 30.4168 15.6946 30.4168 15.8334 30.4168C15.9723 30.3473 16.0418 30.2779 16.1112 30.139C16.3196 29.7223 16.7362 29.4445 17.2223 29.514C17.3612 29.514 17.5001 29.4445 17.5696 29.3751C17.639 29.3057 17.7084 29.1668 17.7084 29.0279C17.7084 28.5418 17.9168 28.1251 18.3334 27.9168C18.4723 27.8473 18.5418 27.7779 18.6112 27.639C18.6807 27.5001 18.6112 27.3612 18.5418 27.2223C18.264 26.8057 18.264 26.3195 18.5418 25.9723C18.6112 25.8334 18.6112 25.6945 18.6112 25.5557C18.5418 25.4168 18.4723 25.3473 18.3334 25.2779C17.9168 25.0695 17.7084 24.6529 17.7084 24.1668C17.7084 24.0279 17.639 23.889 17.5696 23.8195C17.5001 23.7501 17.3612 23.6807 17.2223 23.6807C16.7362 23.6807 16.3196 23.4723 16.1112 23.0557C16.0418 22.9168 15.9723 22.8473 15.8334 22.7779C15.6946 22.7779 15.5557 22.7779 15.4168 22.8473C15.0001 23.1251 14.514 23.1251 14.1668 22.8473C14.0279 22.7779 13.889 22.7779 13.7501 22.7779C13.6112 22.8473 13.5418 22.9168 13.4723 23.0557C13.264 23.4723 12.8473 23.7501 12.3612 23.6807C12.2223 23.6807 12.0834 23.7501 12.014 23.8195C11.9446 23.889 11.8751 24.0279 11.8751 24.1668C11.8751 24.6529 11.6668 25.0695 11.2501 25.2779C11.1112 25.3473 11.0418 25.4168 10.9723 25.5557C10.9029 25.6945 10.9723 25.8334 11.0418 25.9723C11.3196 26.389 11.3196 26.8751 11.0418 27.2223C10.9723 27.3612 10.9723 27.5001 10.9723 27.639C11.0418 27.7779 11.1112 27.8473 11.2501 27.9168C11.6668 28.1251 11.8751 28.5418 11.8751 29.0279C11.8751 29.1668 11.9446 29.3057 12.014 29.3751C12.0834 29.4445 12.2223 29.514 12.3612 29.514C12.8473 29.514 13.264 29.7223 13.4723 30.139C13.5418 30.2779 13.6112 30.3473 13.7501 30.4168C13.889 30.4168 14.0279 30.4168 14.1668 30.3473C14.3751 30.2084 14.5834 30.139 14.7918 30.139ZM31.2501 29.7223C31.1112 29.7223 31.0418 29.6529 30.9723 29.514C30.6251 28.889 29.6529 28.8195 29.2362 29.4445C29.1668 29.514 29.0973 29.5834 29.0279 29.5834C28.9584 29.5834 28.8195 29.5834 28.7501 29.514C28.4723 29.3057 28.1251 29.3057 27.8473 29.5834C27.7779 29.6529 27.639 29.7223 27.5001 29.6529C27.3612 29.5834 27.2918 29.514 27.2918 29.3751C27.2918 29.1668 27.1529 29.0279 26.9445 29.0279C26.7362 29.0279 26.5973 29.1668 26.5973 29.3751C26.5973 29.514 26.5279 29.6529 26.389 29.6529C26.2501 29.7223 26.1112 29.6529 26.0418 29.5834C25.8334 29.3751 25.4168 29.3057 25.139 29.514C25.0696 29.5834 25.0001 29.5834 24.8612 29.5834C24.7918 29.5834 24.6529 29.514 24.6529 29.4445C24.2362 28.889 23.264 28.9584 22.9168 29.514C22.8473 29.6529 22.639 29.7223 22.4307 29.6529C22.2918 29.5834 22.2223 29.3751 22.2918 29.1668C22.5695 28.6112 23.1945 28.264 23.8195 28.264C24.2362 28.264 24.6529 28.4029 25.0001 28.7501C25.3473 28.6112 25.764 28.6112 26.1112 28.7501C26.2501 28.5418 26.5973 28.3334 26.9445 28.3334C27.2918 28.3334 27.639 28.5418 27.7779 28.8195C28.1251 28.6807 28.5418 28.6807 28.889 28.8195C29.2362 28.5418 29.6529 28.3334 30.0695 28.3334C30.6945 28.3334 31.2501 28.6807 31.5973 29.2362C31.6668 29.3751 31.6668 29.5834 31.4584 29.7223H31.2501Z" fill="#582D7F" stroke="#582D7F" stroke-width="0.3"/>
</g>
<defs>
<clipPath id="clip0_228_232">
<rect width="40" height="40" fill="white"/>
</clipPath>
</defs>
</svg>
