<svg width="40" height="40" viewBox="0 0 40 40" fill="none" xmlns="http://www.w3.org/2000/svg">
<g clip-path="url(#clip0_228_213)">
<path d="M19.9998 0.769043C9.39592 0.769043 0.769043 9.39592 0.769043 19.9998C0.769043 30.6037 9.39592 39.2306 19.9998 39.2306C30.6037 39.2306 39.2306 30.6037 39.2306 19.9998C39.2306 9.39592 30.6037 0.769043 19.9998 0.769043ZM19.9998 38.4293C9.83785 38.4293 1.57035 30.1618 1.57035 19.9998C1.57035 9.83785 9.83785 1.57035 19.9998 1.57035C30.1618 1.57035 38.4293 9.83785 38.4293 19.9998C38.4293 30.1618 30.1618 38.4293 19.9998 38.4293Z" fill="#582D7F" stroke="#582D7F" stroke-width="0.5"/>
<path d="M20.0003 4.77539C11.6056 4.77539 4.77588 11.6051 4.77588 19.9998C4.77588 28.3945 11.6056 35.2242 20.0003 35.2242C28.3949 35.2242 35.2246 28.3945 35.2246 19.9998C35.2246 11.6051 28.3949 4.77539 20.0003 4.77539ZM20.0003 34.4228C12.0473 34.4228 5.57719 27.9527 5.57719 19.9998C5.57719 12.0468 12.0473 5.5767 20.0003 5.5767C27.9532 5.5767 34.4233 12.0468 34.4233 19.9998C34.4233 27.9527 27.9532 34.4228 20.0003 34.4228Z" fill="#582D7F" stroke="#582D7F" stroke-width="0.5"/>
<path d="M13.0771 18.952L18.6346 24.6155L27.6925 15.3848" stroke="#582D7F" stroke-width="1.5" stroke-miterlimit="10" stroke-linecap="round"/>
</g>
<defs>
<clipPath id="clip0_228_213">
<rect width="40" height="40" fill="white"/>
</clipPath>
</defs>
</svg>
