<svg width="40" height="40" viewBox="0 0 40 40" fill="none" xmlns="http://www.w3.org/2000/svg">
<path d="M27.5052 38.3038V32.3331C27.5052 31.1961 28.4333 30.2679 29.5704 30.2679H35.541V2.42166C35.541 2.02389 35.2136 1.69642 34.8158 1.69642H13.0809V4.4025H30.7436V17.0148H13.0809V38.3038H27.5052ZM11.7409 1.69642H9.36835C8.97058 1.69642 8.64312 2.02389 8.64312 2.42166V4.4025H11.7409V1.69642ZM11.7409 17.0148H8.64312V37.5785C8.64312 37.9763 8.97058 38.3038 9.36835 38.3038H11.7409V17.0148ZM7.30315 20.5385L3.36962 17.0148H3.31738V4.4025H7.30315V2.42166C7.30315 1.28459 8.23129 0.356445 9.36835 0.356445H34.8158C35.9529 0.356445 36.881 1.28459 36.881 2.42166V31.2141L28.4534 39.6417H9.37036C8.23329 39.6417 7.30516 38.7136 7.30516 37.5765V20.5365L7.30315 20.5385ZM5.36853 17.0148L7.30315 18.7485V17.0148H5.36853ZM29.4037 5.74248H4.65736V15.6748H29.4037V5.74248ZM34.5948 31.6079H29.5704C29.1726 31.6079 28.8452 31.9354 28.8452 32.3331V37.3575L34.5948 31.6079Z" fill="#582D7F"/>
<path d="M8.08289 12.5105C8.35008 12.5105 8.59517 12.4683 8.81817 12.3819C9.04116 12.2955 9.23001 12.175 9.3867 12.0143C9.5434 11.8556 9.66595 11.6667 9.75434 11.4498C9.84274 11.2328 9.88694 10.9917 9.88694 10.7245V10.7065C9.88694 10.4453 9.84274 10.2022 9.75434 9.98123C9.66595 9.75823 9.5434 9.56939 9.3867 9.40868C9.23001 9.24997 9.04116 9.12542 8.81817 9.03702C8.59517 8.94863 8.35209 8.90443 8.08289 8.90443H7.06636V12.5085H8.08289V12.5105ZM5.75049 7.71916H8.08289C8.54897 7.71916 8.97889 7.7955 9.36862 7.94617C9.75836 8.09684 10.0939 8.30577 10.3771 8.57296C10.6584 8.84015 10.8774 9.15555 11.03 9.51716C11.1847 9.87877 11.2611 10.2705 11.2611 10.6924V10.7105C11.2611 11.1324 11.1847 11.5241 11.03 11.8897C10.8753 12.2533 10.6584 12.5708 10.3771 12.8379C10.0959 13.1051 9.75836 13.3161 9.36862 13.4708C8.97889 13.6255 8.55098 13.7018 8.08289 13.7018H5.75049V7.72317V7.71916ZM14.606 12.5868C14.8671 12.5868 15.1102 12.5386 15.3312 12.4422C15.5542 12.3458 15.7431 12.2112 15.8998 12.0404C16.0564 11.8696 16.179 11.6708 16.2674 11.4478C16.3558 11.2228 16.4 10.9817 16.4 10.7265V10.7085C16.4 10.4513 16.3558 10.2102 16.2674 9.98324C16.179 9.75623 16.0544 9.55533 15.8917 9.38457C15.729 9.21381 15.5381 9.07921 15.3151 8.97876C15.0921 8.87832 14.8511 8.8301 14.5899 8.8301C14.3227 8.8301 14.0796 8.87832 13.8607 8.97475C13.6417 9.07118 13.4528 9.20577 13.2961 9.37654C13.1394 9.5473 13.0169 9.74618 12.9285 9.96917C12.8401 10.1942 12.7959 10.4352 12.7959 10.6904V10.7085C12.7959 10.9656 12.8401 11.2067 12.9285 11.4337C13.0169 11.6607 13.1414 11.8616 13.3042 12.0324C13.4669 12.2031 13.6578 12.3377 13.8767 12.4382C14.0957 12.5386 14.3388 12.5868 14.608 12.5868H14.606ZM14.5879 13.8002C14.1258 13.8002 13.7019 13.7199 13.3162 13.5572C12.9285 13.3944 12.595 13.1755 12.3117 12.9002C12.0305 12.625 11.8115 12.2996 11.6548 11.9259C11.4981 11.5522 11.4198 11.1524 11.4198 10.7265V10.7085C11.4198 10.2806 11.5001 9.88078 11.6588 9.50913C11.8175 9.13546 12.0385 8.808 12.3198 8.52675C12.601 8.2455 12.9385 8.02251 13.3283 7.85978C13.718 7.69706 14.1439 7.6167 14.606 7.6167C15.068 7.6167 15.4919 7.69706 15.8777 7.85978C16.2654 8.02251 16.5989 8.24148 16.8821 8.51671C17.1634 8.79193 17.3824 9.11738 17.5391 9.49105C17.6958 9.86471 17.7741 10.2645 17.7741 10.6904V10.7085C17.7741 11.1364 17.6938 11.5362 17.535 11.9078C17.3763 12.2815 17.1554 12.6089 16.8741 12.8902C16.5928 13.1714 16.2553 13.3944 15.8656 13.5572C15.4759 13.7199 15.05 13.8002 14.5879 13.8002ZM21.0005 13.8002C20.5625 13.8002 20.1547 13.7199 19.7791 13.5612C19.4034 13.4025 19.0779 13.1835 18.8047 12.9083C18.5315 12.633 18.3185 12.3056 18.1638 11.9299C18.0092 11.5542 17.9328 11.1524 17.9328 10.7265V10.7085C17.9328 10.2806 18.0092 9.88078 18.1638 9.50913C18.3185 9.13546 18.5315 8.808 18.8047 8.52675C19.0779 8.2455 19.4054 8.02251 19.7871 7.85978C20.1688 7.69706 20.5907 7.6167 21.0507 7.6167C21.33 7.6167 21.5851 7.6388 21.8161 7.685C22.0472 7.73121 22.2561 7.79349 22.4429 7.87384C22.6318 7.9542 22.8045 8.05063 22.9633 8.16514C23.122 8.27965 23.2706 8.40421 23.4072 8.54081L22.5695 9.50511C22.3365 9.29417 22.0974 9.12943 21.8563 9.0089C21.6152 8.88836 21.342 8.8301 21.0407 8.8301C20.7896 8.8301 20.5585 8.87832 20.3456 8.97475C20.1326 9.07118 19.9478 9.20577 19.7951 9.37654C19.6404 9.5473 19.5219 9.74618 19.4355 9.96917C19.3491 10.1942 19.3069 10.4352 19.3069 10.6904V10.7085C19.3069 10.9656 19.3491 11.2067 19.4355 11.4337C19.5219 11.6607 19.6384 11.8616 19.7891 12.0324C19.9398 12.2031 20.1226 12.3377 20.3355 12.4382C20.5485 12.5386 20.7835 12.5868 21.0407 12.5868C21.3822 12.5868 21.6715 12.5246 21.9085 12.398C22.1456 12.2734 22.3807 12.1027 22.6137 11.8857L23.4514 12.7315C23.2967 12.8962 23.138 13.0449 22.9733 13.1755C22.8086 13.306 22.6278 13.4185 22.4309 13.513C22.234 13.6074 22.019 13.6777 21.786 13.7259C21.553 13.7741 21.2898 13.7982 21.0005 13.7982V13.8002ZM25.3881 10.6562L23.3892 7.71916H24.926L26.1816 9.65779L27.4452 7.71916H28.9399L26.941 10.6402L29.0243 13.6978H27.4874L26.1475 11.6487L24.7974 13.6978H23.3028L25.3861 10.6562H25.3881Z" fill="#582D7F"/>
</svg>
