<svg width="20" height="16" viewBox="0 0 20 16" fill="none" xmlns="http://www.w3.org/2000/svg">
<path d="M2.09382 7.11506C7.14672 4.91359 10.5161 3.46225 12.202 2.76103C17.0155 0.75892 18.0157 0.411132 18.6676 0.399525C18.811 0.397122 19.1316 0.432657 19.3393 0.601166C19.5146 0.743452 19.5629 0.93566 19.586 1.07056C19.6091 1.20546 19.6378 1.51278 19.615 1.7529C19.3541 4.49364 18.2254 11.1447 17.6512 14.2144C17.4083 15.5133 16.9298 15.9488 16.4667 15.9914C15.4601 16.084 14.6958 15.3262 13.7209 14.6871C12.1954 13.6871 11.3336 13.0646 9.85278 12.0888C8.14148 10.9611 9.25084 10.3413 10.2261 9.32834C10.4813 9.06325 14.9162 5.02937 15.0021 4.66343C15.0128 4.61766 15.0228 4.44707 14.9214 4.35699C14.8201 4.26691 14.6705 4.29771 14.5626 4.32221C14.4096 4.35694 11.9725 5.96773 7.25144 9.15459C6.5597 9.62959 5.93313 9.86103 5.37176 9.8489C4.75288 9.83553 3.56242 9.49898 2.67743 9.21131C1.59196 8.85846 0.729242 8.67191 0.804365 8.07267C0.843494 7.76055 1.27331 7.44134 2.09382 7.11506Z" fill="#582D7F"/>
</svg>
