<svg width="19" height="19" viewBox="0 0 19 19" fill="none" xmlns="http://www.w3.org/2000/svg">
<path fill-rule="evenodd" clip-rule="evenodd" d="M16.1763 2.88264C14.4116 1.11793 12.0586 0.176758 9.58803 0.176758C4.41156 0.176758 0.17627 4.41205 0.17627 9.58852C0.17627 11.2356 0.646865 12.8826 1.47039 14.2944L0.17627 19.0003L5.11746 17.7062C6.52923 18.4121 8.05862 18.8826 9.58803 18.8826C14.7645 18.8826 18.9998 14.6473 18.9998 9.47088C18.9998 7.00029 17.941 4.64735 16.1763 2.88264ZM9.58803 17.3532C8.17627 17.3532 6.76451 17.0003 5.58804 16.2944L5.35273 16.1768L2.41156 17.0003L3.2351 14.1768L2.99979 13.8238C2.17626 12.5297 1.82332 11.1179 1.82332 9.70617C1.82332 5.47088 5.35274 1.94146 9.58803 1.94146C11.7057 1.94146 13.588 2.76499 15.1175 4.17676C16.6469 5.70617 17.3527 7.58852 17.3527 9.70617C17.3527 13.8238 13.941 17.3532 9.58803 17.3532ZM13.8233 11.4709C13.588 11.3532 12.4116 10.765 12.1763 10.765C11.941 10.6473 11.8233 10.6473 11.7057 10.8826C11.588 11.1179 11.1175 11.5885 10.9998 11.8238C10.8822 11.9415 10.7645 11.9415 10.5292 11.9415C10.2939 11.8238 9.58805 11.5885 8.64687 10.765C7.94099 10.1768 7.47039 9.35323 7.35275 9.11794C7.2351 8.88264 7.35275 8.76499 7.4704 8.64735C7.58805 8.5297 7.70568 8.41205 7.82333 8.2944C7.94098 8.17676 7.94099 8.05911 8.05864 7.94146C8.17628 7.82382 8.05864 7.70617 8.05864 7.58852C8.05864 7.47088 7.58804 6.29441 7.35275 5.82382C7.2351 5.47088 6.99981 5.47088 6.88217 5.47088C6.76452 5.47088 6.64684 5.47088 6.41155 5.47088C6.2939 5.47088 6.05861 5.47088 5.82331 5.70617C5.58802 5.94146 4.99981 6.5297 4.99981 7.70617C4.99981 8.88264 5.82332 9.94146 5.94097 10.1768C6.05862 10.2944 7.58802 12.765 9.94096 13.7062C11.941 14.5297 12.2939 14.2944 12.7645 14.2944C13.2351 14.2944 14.1763 13.7062 14.2939 13.2356C14.5292 12.6473 14.5292 12.1768 14.4116 12.1768C14.2939 11.5885 14.0586 11.5885 13.8233 11.4709Z" fill="#582D7F"/>
</svg>
